<svg width="31" height="29" viewBox="0 0 31 29" fill="none" xmlns="http://www.w3.org/2000/svg">
<g clip-path="url(#clip0_312_18470)">
<path d="M30.6675 22.673C30.6222 22.8652 30.5816 23.059 30.53 23.2505C30.0074 25.216 28.123 26.5533 26.0409 26.4375C23.9214 26.3195 22.2214 24.8096 21.9253 22.782C21.587 20.4668 23.2363 18.3287 25.6363 17.9737C28.0066 17.6233 30.2433 19.2316 30.6136 21.5513C30.6222 21.6051 30.6488 21.6558 30.6667 21.708C30.6675 22.0297 30.6675 22.3513 30.6675 22.673Z" fill="white"/>
<path d="M5.06202 26.4439C2.63077 26.4439 0.664359 24.5412 0.667484 22.192C0.669828 19.8412 2.6417 17.9287 5.05967 17.9302C7.48155 17.9317 9.45733 19.8457 9.45576 22.1889C9.4542 24.542 7.49014 26.4439 5.06202 26.4439Z" fill="white"/>
<path d="M15.6714 8.50693C13.2472 8.50996 11.2745 6.60347 11.273 4.25725C11.2714 1.90876 13.2378 0.00151459 15.6628 9.02529e-07C18.0901 -0.00151279 20.0597 1.90119 20.0612 4.24892C20.0636 6.59665 18.0972 8.5039 15.6714 8.50693Z" fill="white"/>
<path d="M20.8236 26.1299C21.083 26.6256 21.3369 27.1115 21.6072 27.6299C20.0408 28.4087 18.3932 28.8477 16.6572 28.9658C14.2338 29.13 11.926 28.7092 9.72754 27.6307C9.99395 27.1198 10.2518 26.6264 10.5111 26.1299C13.951 27.6814 17.3666 27.6837 20.8236 26.1299Z" fill="white"/>
<path d="M22.9002 5.52881C26.5002 7.9772 28.4736 11.2755 28.8455 15.5161C28.2455 15.5479 27.6846 15.5774 27.0932 15.6085C26.7705 11.9453 25.0564 9.06857 21.9346 6.95546C22.2471 6.49378 22.5604 6.0306 22.9002 5.52881Z" fill="white"/>
<path d="M4.24082 15.6071C3.65723 15.5761 3.09629 15.5458 2.48926 15.5133C2.86113 11.2712 4.83848 7.97132 8.43691 5.53125C8.77207 6.02547 9.08613 6.48866 9.40254 6.95563C6.28223 9.06268 4.56582 11.9379 4.24082 15.6071Z" fill="white"/>
</g>
<defs>
<clipPath id="clip0_312_18470">
<rect width="30" height="29" fill="white" transform="translate(0.66748)"/>
</clipPath>
</defs>
</svg>
