<svg width="12" height="22" viewBox="0 0 12 22" fill="none" xmlns="http://www.w3.org/2000/svg">
<path d="M1.68035 0.00121872C2.13892 0.0985965 2.46813 0.399248 2.78744 0.733982C5.68217 3.76546 8.58098 6.79207 11.481 9.81746C11.9372 10.294 12.1289 10.8478 11.9086 11.4954C11.8288 11.7291 11.682 11.9585 11.513 12.1356C8.53378 15.2609 5.54699 18.3781 2.56019 21.4954C2.10745 21.9677 1.5644 22.1284 0.959 21.8922C0.390309 21.6707 0.0680888 21.2161 0.00807313 20.5825C-0.040289 20.0707 0.15549 19.6495 0.499269 19.2929C1.18916 18.5759 1.87613 17.8553 2.56427 17.1366C4.46438 15.1519 6.36448 13.1678 8.26517 11.1838C8.31819 11.1284 8.37879 11.0815 8.51339 10.9616C8.40967 10.9002 8.32402 10.8716 8.2675 10.8125C5.68217 8.1164 3.09917 5.41722 0.515 2.71987C0.0721666 2.25794 -0.117203 1.72175 0.0744973 1.08028C0.22541 0.574526 0.551126 0.239792 1.03649 0.0779018C1.11399 0.0523414 1.1909 0.0261707 1.2684 -5.54436e-08C1.40591 0.00121683 1.54284 0.00121873 1.68035 0.00121872Z" fill="url(#paint0_linear_312_9521)"/>
<defs>
<linearGradient id="paint0_linear_312_9521" x1="-25" y1="-11" x2="15" y2="37.5" gradientUnits="userSpaceOnUse">
<stop offset="0.00788013" stop-color="#FFB000"/>
<stop offset="0.284145" stop-color="#FF6045"/>
<stop offset="0.574965" stop-color="#FF0098"/>
<stop offset="0.732199" stop-color="#5D00C1"/>
</linearGradient>
</defs>
</svg>
