<svg width="24" height="24" viewBox="0 0 24 24" fill="none" xmlns="http://www.w3.org/2000/svg">
<path d="M16 0H8C3.58172 0 0 3.58172 0 8V16C0 20.4183 3.58172 24 8 24H16C20.4183 24 24 20.4183 24 16V8C24 3.58172 20.4183 0 16 0Z" fill="#F5B300"/>
<path d="M7.78368 5.51752C8.22437 5.63771 8.66505 5.71783 9.10574 5.83802C9.54643 5.95821 9.98712 6.03833 10.4278 6.15852C10.548 6.19859 10.5881 6.15852 10.6282 6.03833C10.7884 5.35727 10.9487 4.71627 11.1089 4.03521C11.149 3.91502 11.189 3.87495 11.3092 3.91502C11.7098 4.03521 12.0704 4.11533 12.471 4.19546C12.5912 4.23552 12.5912 4.27558 12.5512 4.35571C12.3909 4.99671 12.2307 5.67777 12.0704 6.31877C12.0704 6.35884 12.0704 6.3989 12.0303 6.47902C12.3508 6.55915 12.7114 6.63927 13.0319 6.7194C13.072 6.7194 13.112 6.63927 13.1521 6.59921C13.2723 6.0784 13.3925 5.59765 13.5527 5.07683C13.5928 4.91658 13.6328 4.75633 13.6729 4.59608C13.6729 4.51596 13.713 4.47589 13.7931 4.51596C14.1937 4.63614 14.5943 4.71627 15.035 4.83646C15.0751 4.83646 15.0751 4.87652 15.1152 4.87652C14.995 5.39733 14.8748 5.87808 14.7546 6.35884C14.7145 6.55915 14.6745 6.75946 14.5943 6.95977C14.5543 7.07996 14.5943 7.12002 14.7145 7.16009C15.1552 7.3604 15.5959 7.56071 16.0366 7.76103C16.4372 8.0014 16.7978 8.3219 17.0782 8.72253C17.4388 9.32347 17.4789 9.96447 17.3186 10.6055C17.1984 11.0462 17.0382 11.4468 16.7177 11.7673C16.4773 12.0077 16.1568 12.1679 15.8363 12.2881C15.7962 12.2881 15.7562 12.3282 15.676 12.3282C15.8363 12.4484 15.9965 12.5285 16.1568 12.6487C16.6375 13.0092 16.958 13.4499 17.1183 14.0108C17.1984 14.4515 17.1584 14.9322 17.0382 15.3729C16.8779 15.9338 16.6776 16.4145 16.317 16.8552C15.8764 17.376 15.3155 17.6565 14.6745 17.7366C13.8332 17.8568 13.0319 17.7767 12.2307 17.6565C12.1105 17.6164 12.0303 17.6565 11.9903 17.7767C11.83 18.4177 11.6698 19.0987 11.5095 19.7397C11.4695 19.9 11.4695 19.9401 11.2692 19.8599C10.9086 19.7798 10.508 19.6596 10.1474 19.5795C10.0272 19.5394 10.0272 19.4994 10.0673 19.4192C10.2275 18.7382 10.3878 18.0571 10.5881 17.4161C10.5881 17.336 10.6282 17.2959 10.548 17.2559C10.2275 17.1757 9.90699 17.0956 9.54643 17.0155C9.46631 17.376 9.34612 17.7366 9.26599 18.0972C9.18587 18.4577 9.06568 18.8183 8.98556 19.1789C8.94549 19.259 8.94549 19.2991 8.82531 19.259C8.42469 19.1388 8.02405 19.0587 7.62343 18.9786C7.50324 18.9385 7.50324 18.8984 7.5433 18.8183C7.70355 18.1372 7.8638 17.4562 8.06412 16.8152C8.06412 16.7751 8.10418 16.735 8.10418 16.6549C7.18274 16.4145 6.2613 16.1742 5.2998 15.9338C5.37992 15.7735 5.41998 15.6534 5.50011 15.4931C5.66036 15.1325 5.82061 14.772 5.9408 14.4515C5.98086 14.3313 6.02092 14.3313 6.14111 14.3313C6.42155 14.4114 6.74205 14.4915 7.02249 14.5316C7.34299 14.6117 7.58336 14.4515 7.62343 14.171C8.14424 12.1278 8.66505 10.0847 9.14581 8.0014C9.22593 7.6809 9.02562 7.32034 8.66505 7.20015C8.30449 7.07996 7.94393 6.99984 7.62343 6.91971C7.5433 6.91971 7.50324 6.87965 7.5433 6.79952C7.66349 6.35884 7.78368 5.87808 7.90387 5.4374C7.74361 5.55758 7.74362 5.55758 7.78368 5.51752ZM9.82687 15.413C9.86693 15.413 9.90699 15.453 9.90699 15.453C10.548 15.6133 11.2291 15.8136 11.9102 15.8537C12.3909 15.8937 12.8316 15.8937 13.2723 15.7335C14.0335 15.4931 14.354 14.4915 13.9133 13.8505C13.713 13.53 13.3925 13.3297 13.072 13.1294C12.3508 12.7288 11.5095 12.5685 10.7083 12.4083C10.5881 12.3682 10.5881 12.4083 10.548 12.5285C10.4679 12.9291 10.3477 13.2897 10.2676 13.6903C10.1073 14.2512 9.98712 14.812 9.82687 15.413ZM13.1922 11.3266C13.2723 11.3266 13.4726 11.2865 13.6328 11.2465C14.394 11.0862 14.7947 10.2048 14.394 9.52378C14.1937 9.16322 13.8332 8.92284 13.4726 8.76259C12.9117 8.52222 12.3508 8.40203 11.7499 8.24178C11.6297 8.20171 11.5897 8.24178 11.5496 8.36197C11.3493 9.20328 11.149 10.0045 10.9086 10.8458C10.8685 10.926 10.9086 10.966 10.9887 11.0061C11.149 11.0462 11.2692 11.0862 11.4294 11.1263C12.0303 11.2064 12.5512 11.3266 13.1922 11.3266Z" fill="white"/>
</svg>
