<svg width="24" height="24" viewBox="0 0 24 24" fill="none" xmlns="http://www.w3.org/2000/svg">
<path d="M16 0H8C3.58172 0 0 3.58172 0 8V16C0 20.4183 3.58172 24 8 24H16C20.4183 24 24 20.4183 24 16V8C24 3.58172 20.4183 0 16 0Z" fill="#E9E9E9"/>
<path d="M16.4143 13.154C15.8774 12.8478 15.2728 12.759 14.6739 12.7383C14.1715 12.721 13.4219 12.4029 13.4219 11.5C13.4219 10.8273 13.9739 10.2859 14.6742 10.2618C15.273 10.2411 15.8775 10.1522 16.4143 9.84611C16.8964 9.57114 17.2968 9.17565 17.5751 8.69938C17.8535 8.22311 18 7.68285 18 7.1329C18 6.58295 17.8534 6.0427 17.5751 5.56643C17.2967 5.09017 16.8964 4.69467 16.4142 4.41971C15.9321 4.14474 15.3852 3.99999 14.8285 4C14.2718 4.00001 13.7249 4.14479 13.2427 4.41977C12.7606 4.69476 12.3603 5.09026 12.0819 5.56654C11.8036 6.04282 11.6571 6.58308 11.6571 7.13303C11.6571 7.74003 11.8756 8.29862 12.1545 8.8167C12.389 9.25244 12.5077 10.0612 11.7033 10.5199C11.1049 10.8612 10.3581 10.6451 9.98512 10.0554C9.67004 9.55731 9.28969 9.09061 8.75718 8.78685C8.27506 8.51188 7.72816 8.36712 7.17145 8.36712C6.61475 8.36711 6.06785 8.51187 5.58573 8.78684C5.10361 9.06181 4.70325 9.4573 4.42489 9.93357C4.14654 10.4098 4 10.9501 4 11.5C4 12.05 4.14654 12.5902 4.42489 13.0665C4.70325 13.5427 5.10361 13.9382 5.58573 14.2132C6.06785 14.4882 6.61475 14.6329 7.17145 14.6329C7.72816 14.6329 8.27506 14.4882 8.75718 14.2132C9.28954 13.9095 9.66993 13.4431 9.98481 12.9454C10.2434 12.5366 10.8891 12.0155 11.7033 12.4802C12.3007 12.8212 12.4854 13.5684 12.1542 14.1838C11.8754 14.7018 11.6571 15.2602 11.6571 15.8671C11.6571 16.4171 11.8037 16.9573 12.082 17.4336C12.3604 17.9098 12.7607 18.3053 13.2428 18.5803C13.7249 18.8552 14.2718 19 14.8285 19C15.3852 19 15.9321 18.8552 16.4142 18.5803C16.8964 18.3053 17.2967 17.9098 17.5751 17.4336C17.8534 16.9573 18 16.4171 18 15.8671C18 15.3172 17.8534 14.777 17.5751 14.3007C17.2967 13.8244 16.8964 13.4289 16.4143 13.154Z" fill="url(#paint0_linear_312_9606)"/>
<defs>
<linearGradient id="paint0_linear_312_9606" x1="7.94828" y1="6.30188" x2="18.3438" y2="16.8252" gradientUnits="userSpaceOnUse">
<stop stop-color="#00AAE4"/>
<stop offset="1" stop-color="#006097"/>
</linearGradient>
</defs>
</svg>
