<svg width="787" height="559" viewBox="0 0 787 559" fill="none" xmlns="http://www.w3.org/2000/svg">
<path d="M787 439.262H626.228L587.564 477.95H431.428L427.411 481.967C428.893 484.31 428.607 487.442 426.574 489.475C424.207 491.842 420.357 491.842 417.99 489.475C415.623 487.107 415.623 483.258 417.99 480.891C420.023 478.858 423.155 478.571 425.498 480.054L430.304 475.248H586.441L625.104 436.56H787V439.262Z" fill="#FF6045" fill-opacity="0.1"/>
<path d="M787 404.878H597.583L563.917 438.545H365.53L339.659 464.44C341.142 466.783 340.855 469.915 338.822 471.948C336.455 474.315 332.605 474.315 330.238 471.948C327.871 469.581 327.871 465.731 330.238 463.364C332.271 461.331 335.403 461.045 337.746 462.527L364.407 435.843H562.793L596.459 402.177H787V404.878Z" fill="#FF6045" fill-opacity="0.08"/>
<path d="M377.318 299.074H604.039L634.142 329.177H635.696V330.732L650.593 345.628H787V348.33H649.469L633.018 331.879H472.961L422.461 382.355H217.284L175.106 424.509C176.588 426.852 176.301 429.985 174.269 432.017C171.902 434.384 168.052 434.384 165.685 432.017C163.318 429.65 163.318 425.8 165.685 423.433C167.718 421.401 170.85 421.114 173.193 422.596L216.161 379.629H421.362L471.861 329.154H630.34L602.939 301.752H378.442L353.718 326.476H195.789L171.615 350.649H116.979C116.358 353.351 113.966 355.384 111.073 355.384C107.726 355.36 105 352.658 105 349.31C105 345.963 107.726 343.237 111.073 343.237C113.966 343.237 116.358 345.269 116.979 347.971H170.515L194.689 323.798H352.618L377.318 299.074Z" fill="#FF6045" fill-opacity="0.08"/>
<path d="M342.409 209.098C340.041 211.465 336.192 211.465 333.825 209.098C331.458 206.731 331.458 202.882 333.825 200.514C335.857 198.482 338.989 198.195 341.333 199.677L364.406 176.628H554.592L595.407 217.419H786.976V220.121H594.307L553.492 179.33H365.53L343.245 201.59C344.728 203.934 344.441 207.066 342.409 209.098Z" fill="url(#paint0_linear_312_9647)" fill-opacity="0.08"/>
<path d="M630.914 97.3401C627.567 97.3401 624.841 94.6143 624.841 91.2668C624.841 87.9193 627.567 85.1935 630.914 85.1935C633.807 85.1935 636.198 87.2259 636.82 89.9278H786.976V92.6297H636.82C636.222 95.3316 633.807 97.3401 630.914 97.3401Z" fill="#FF6045" fill-opacity="0.1"/>
<path d="M787 7.41219H546.701C546.079 10.1141 543.688 12.1465 540.795 12.1465C537.447 12.1465 534.722 9.42069 534.722 6.0732C534.722 2.72571 537.447 -0.000120163 540.795 -0.000120163C543.688 -0.000120163 546.079 2.03227 546.701 4.73417H787V7.41219Z" fill="#FF6045" fill-opacity="0.1"/>
<path d="M598.611 34.2879H787V36.9659H599.735L572.596 64.0806H433.221L377.964 119.338H568.221L584.145 135.239H787V137.94H586.823L626.228 177.321H787V180.023H625.104L583.021 137.94H581.993V136.912L567.121 122.04H258.052C257.43 124.742 255.039 126.774 252.146 126.774C248.799 126.774 246.073 124.048 246.073 120.701C246.073 117.353 248.799 114.628 252.146 114.628C255.039 114.628 257.43 116.66 258.052 119.362H375.118L374.64 118.884L432.097 61.4265H571.473L598.611 34.2879Z" fill="#FF6045" fill-opacity="0.08"/>
<path d="M434.073 540C436.967 540 439.358 542.032 439.979 544.734H786.991V547.412H439.979C439.358 550.114 436.943 552.146 434.073 552.146C430.726 552.146 428 549.421 428 546.073C428 542.726 430.702 540 434.073 540Z" fill="#FF6045" fill-opacity="0.1"/>
<path d="M787 506.618H371.269L360.078 517.808C361.561 520.152 361.274 523.284 359.242 525.316C356.874 527.684 353.025 527.684 350.658 525.316C348.291 522.949 348.291 519.1 350.658 516.733C352.69 514.7 355.822 514.413 358.166 515.896L370.145 503.916H787V506.618Z" fill="#FF6045" fill-opacity="0.08"/>
<path d="M787 270.62H592.179L552.966 231.407H399.914L345.397 285.923H174.317L161.286 298.931C162.768 301.274 162.481 304.406 160.449 306.439C158.081 308.806 154.232 308.806 151.865 306.439C149.498 304.071 149.498 300.222 151.865 297.855C153.897 295.822 157.029 295.535 159.373 297.018L173.193 283.221H344.274L398.79 228.705H554.065L593.279 267.918H787V270.62Z" fill="#FF6045" fill-opacity="0.1"/>
<path d="M129.978 324.662C130.265 325.786 130.6 326.886 131.006 327.985L135.717 342.81C137.295 346.779 138.49 349.385 138.49 349.433L138.634 349.744L138.968 349.84C139.016 349.84 144.492 351.466 149.776 352.709C152.454 353.355 155.084 353.952 157.045 354.359C157.069 354.359 159.006 354.765 160.082 354.909L164.122 362.154C164.601 362.967 165.055 363.804 165.533 364.712C166.394 366.314 167.374 368.131 168.546 369.901L177.321 382.502C177.991 383.434 178.708 384.271 179.425 385.06C179.808 385.514 180.19 385.945 180.573 386.399L186.335 393.166C188.2 395.461 189.587 396.944 190.639 397.876L192.337 399.502L193.365 398.45L191.644 396.8C190.615 395.892 189.3 394.457 187.459 392.233L181.697 385.467C181.338 385.012 180.932 384.582 180.549 384.104C179.88 383.315 179.162 382.526 178.541 381.665L169.789 369.088C168.665 367.39 167.757 365.669 166.848 364.019C166.346 363.11 165.892 362.249 165.414 361.436L160.918 353.402L160.512 353.522C160.129 353.474 158.91 353.307 157.356 352.948C155.395 352.542 152.765 351.968 150.111 351.322C145.616 350.246 140.953 348.907 139.686 348.549C139.327 347.76 138.323 345.464 137.103 342.356L132.417 327.555C131.461 324.901 130.887 322.151 130.385 319.593L127.515 305.82C127.707 305.486 128.089 304.84 128.663 304.003L131.795 299.436L136.53 292.861L135.812 286.19C135.645 283.799 135.645 280.858 135.645 277.725C135.645 275.908 135.645 274.019 135.621 272.154C135.43 268.185 135.812 264.311 136.147 260.916C136.243 259.936 136.338 259.027 136.41 258.166L137.032 251.495L135.693 249.654C135.167 248.937 134.521 248.052 134.019 247.168L131.58 243.151L132.991 235.953C133.158 235.188 133.326 234.351 133.469 233.443C133.756 231.817 134.067 230.119 134.641 228.398L137.199 219.79C137.534 218.786 137.821 217.734 138.132 216.681C138.682 214.793 139.184 212.999 139.877 211.302L145.783 196.74L145.09 194.492L144.014 190.212L142.579 184.067L147.265 175.149L153.004 166.302C153.602 165.417 154.2 164.508 154.797 163.552C156.352 161.137 157.954 158.626 159.89 156.379L161.54 154.299C166.179 148.417 170.554 142.869 174.595 139.068L181.649 131.775C182.032 131.727 182.892 131.655 184.088 131.655L190.281 131.584C194.656 131.56 198.936 131.679 198.984 131.679L199.271 131.703L203.91 127.758C205.655 126.467 207.879 124.912 210.246 123.287C211.561 122.378 212.924 121.445 214.263 120.489C214.933 120.035 215.626 119.556 216.295 119.078C217.515 118.217 218.663 117.405 219.834 116.687L229.805 111.14L237.289 112.981L245.227 115.659L249.794 113.698C250.631 113.388 251.588 112.933 252.592 112.479C254.6 111.57 256.848 110.542 259.239 109.921L273.561 105.377L273.107 103.967L258.809 108.51C256.346 109.155 254.003 110.207 251.97 111.116C250.99 111.57 250.057 111.977 249.22 112.312L245.156 114.081L237.695 111.546L229.59 109.562L219.093 115.42C217.85 116.185 216.63 117.046 215.435 117.883C214.765 118.361 214.096 118.815 213.426 119.293C212.063 120.25 210.7 121.182 209.385 122.091C207.018 123.741 204.771 125.295 202.953 126.634L198.721 130.221C197.693 130.197 194.011 130.101 190.233 130.125L184.04 130.197C182.271 130.221 181.219 130.364 181.171 130.364L180.932 130.412L173.543 138.039C169.455 141.889 165.055 147.484 160.368 153.39L158.743 155.446C156.758 157.742 155.132 160.3 153.53 162.763C152.932 163.695 152.358 164.604 151.761 165.489L145.974 174.407L141.001 183.876L143.655 194.899L144.205 196.668L138.49 210.752C137.773 212.497 137.223 214.41 136.697 216.275C136.41 217.303 136.099 218.331 135.788 219.359L133.23 227.967C132.632 229.785 132.297 231.602 132.01 233.204C131.867 234.064 131.7 234.877 131.532 235.643L130.002 243.437L132.728 247.933C133.278 248.865 133.947 249.774 134.473 250.515L135.478 251.902L134.904 258.023C134.832 258.884 134.736 259.792 134.641 260.749C134.282 264.216 133.899 268.137 134.091 272.202C134.115 274.043 134.115 275.932 134.115 277.725C134.115 280.882 134.115 283.87 134.282 286.333L134.928 292.454L130.528 298.599L127.396 303.19C126.511 304.481 126.033 305.342 126.033 305.366L125.913 305.605L128.902 319.904C129.213 321.386 129.548 323.012 129.978 324.662Z" fill="url(#paint1_linear_312_9647)"/>
<path d="M273.466 105.33L290.658 101.743C292.594 101.48 294.698 101.265 296.803 101.05C298.094 100.93 299.385 100.787 300.7 100.643C301.919 100.548 303.187 100.404 304.43 100.237C306.63 99.9737 308.71 99.7106 310.742 99.7824L325.926 99.7106L328.604 99.9498L328.843 99.6628C328.867 99.615 332.31 95.5741 336.064 91.6049C339.148 88.2814 342.448 85.0056 343.667 83.834L345.269 83.9774C346.011 84.0731 346.991 84.2883 348.139 84.5035C348.784 84.623 349.502 84.7665 350.243 84.91C351.654 85.2208 353.232 85.5077 354.905 85.8186C358.157 86.4402 361.863 87.1336 365.45 88.0422L380.346 92.4896C381.685 92.8244 382.785 93.3026 383.766 93.7091C384.268 93.9243 384.722 94.1156 385.128 94.259L386.635 94.8568L390.126 101.695L393.569 108.94L393.88 109.036C393.88 109.036 394.454 109.227 395.338 109.705L399.475 111.881C400.646 112.527 401.985 113.22 403.444 113.961C406.074 115.3 409.039 116.807 411.837 118.552L423.672 126.251C424.748 126.897 425.585 127.59 426.326 128.188C426.709 128.499 427.044 128.786 427.379 129.025L428.957 130.292L434.217 129.958L439.023 129.718L440.434 130.842C440.673 131.034 440.96 131.273 441.271 131.512C442.203 132.253 443.375 133.162 444.546 134.381C445.67 135.481 446.913 136.676 448.252 137.968C450.835 140.454 453.752 143.252 456.597 146.121L467.453 158.866C468.385 159.989 469.103 161.041 469.748 161.998C470.083 162.5 470.394 162.93 470.657 163.313L471.996 165.25L478.643 166.947L484.884 168.693C485.099 169.004 485.601 169.697 486.27 170.797L495.093 186.626C496.193 188.873 497.221 191.288 498.297 193.823C498.847 195.114 499.397 196.405 499.971 197.696C502.864 203.698 504.873 210.154 506.475 215.319C506.881 216.634 507.264 217.877 507.646 219.049C509.32 223.831 510.061 227.417 510.301 228.685C509.822 229.593 508.029 233.036 506.212 236.312C504.419 239.516 502.601 242.624 502.075 243.509L501.669 243.629L501.836 244.346C501.98 244.896 502.434 246.952 502.649 249.941L503.988 262.638C504.275 264.574 504.275 266.511 504.275 268.376L504.323 280.81C503.51 281.718 501.31 284.085 498.8 286.309L491.555 292.813L492.583 292.909C492.368 296.782 488.494 319.425 487.394 321.123L487.92 321.458L487.705 322.342L488.518 322.056C489.57 320.836 493.993 296.71 494.017 292.526L499.732 287.385C502.338 285.09 504.61 282.603 505.399 281.718L505.734 281.623L505.662 268.352C505.662 266.439 505.662 264.431 505.351 262.422L504.012 249.774C503.821 247.072 503.414 245.087 503.223 244.25C503.749 243.342 505.59 240.233 507.407 237.005C509.535 233.204 511.616 229.163 511.64 229.115L511.95 228.517L511.64 228.326C511.376 226.939 510.611 223.329 508.938 218.57C508.555 217.423 508.173 216.179 507.766 214.888C506.14 209.652 504.108 203.148 501.191 197.075C500.641 195.807 500.091 194.516 499.541 193.249C498.441 190.691 497.413 188.252 496.265 185.932L487.418 170.056C485.936 167.593 485.601 167.258 485.218 167.282L478.906 165.513L472.785 163.958L471.757 162.452C471.47 162.07 471.183 161.639 470.872 161.185C470.25 160.252 469.461 159.105 468.481 157.933L457.578 145.141C454.684 142.224 451.767 139.426 449.185 136.94C447.87 135.648 446.627 134.477 445.503 133.377C444.283 132.11 443.064 131.153 442.084 130.388C441.773 130.149 441.51 129.934 441.271 129.742L439.406 128.26L429.339 128.834L428.191 127.901C427.881 127.662 427.546 127.399 427.211 127.112C426.47 126.491 425.561 125.725 424.39 125.056L412.578 117.381C409.709 115.587 406.696 114.057 404.042 112.718C402.607 112.001 401.292 111.307 400.096 110.662L395.96 108.486C395.362 108.151 394.86 107.936 394.549 107.816L391.369 101.145L387.639 93.7808L385.583 92.9439C385.176 92.8005 384.746 92.6092 384.292 92.4179C383.311 92.0114 382.116 91.4854 380.681 91.1267L365.785 86.6794C362.102 85.7468 358.396 85.0534 355.121 84.4317C353.447 84.1209 351.869 83.8101 350.458 83.5231C349.693 83.3797 348.999 83.2362 348.354 83.1167C347.182 82.8776 346.178 82.6863 345.365 82.5906L343.046 82.3754L342.807 82.6146C341.755 83.6427 338.192 87.1337 334.892 90.6724C331.712 94.0677 328.747 97.4869 327.886 98.5151L325.902 98.3238L310.671 98.3955C308.567 98.3238 306.319 98.6107 304.167 98.8737C302.948 99.0172 301.728 99.1846 300.485 99.2563C299.17 99.3998 297.879 99.5433 296.587 99.6628C294.459 99.878 292.331 100.093 290.323 100.38L273.083 103.967L273.466 105.33Z" fill="url(#paint2_linear_312_9647)"/>
<path d="M489.286 315.442L483.489 332.019C482.715 333.814 481.813 335.727 480.912 337.641C480.348 338.809 479.805 339.989 479.249 341.189C478.702 342.283 478.171 343.443 477.673 344.594C476.763 346.614 475.915 348.532 474.805 350.236L467.033 363.279L465.447 365.45L465.569 365.803C465.598 365.848 467.283 370.882 468.746 376.146C470.002 380.503 471.105 385.019 471.48 386.669L470.53 387.967C470.066 388.552 469.376 389.281 468.599 390.153C468.164 390.645 467.671 391.185 467.165 391.746C466.171 392.794 465.111 393.998 463.981 395.271C461.771 397.736 459.265 400.553 456.636 403.157L445.141 413.623C444.163 414.597 443.186 415.292 442.332 415.922C441.888 416.241 441.49 416.532 441.158 416.806L439.868 417.788L432.209 417.25L424.227 416.462L423.984 416.679C423.984 416.679 423.524 417.072 422.658 417.583L418.66 420.003C417.503 420.674 416.218 421.463 414.83 422.33C412.326 423.892 409.506 425.655 406.568 427.151L393.866 433.317C392.757 433.906 391.732 434.265 390.837 434.592C390.374 434.759 389.955 434.898 389.577 435.061L387.678 435.759L385.25 440.438L382.976 444.678L381.285 445.307C380.998 445.413 380.645 445.535 380.28 445.678C379.164 446.095 377.781 446.629 376.132 447.004C374.61 447.399 372.944 447.847 371.147 448.328C367.685 449.257 363.783 450.313 359.857 451.27L343.339 453.993C341.896 454.212 340.624 454.284 339.472 454.344C338.869 454.371 338.34 454.415 337.876 454.443L335.527 454.591L330.643 459.409L325.928 463.855C325.55 463.878 324.697 463.951 323.41 463.957L305.298 463.348C302.805 463.131 300.206 462.765 297.48 462.379C296.09 462.184 294.7 461.989 293.298 461.815C286.664 461.197 280.098 459.586 274.847 458.294C273.511 457.963 272.248 457.65 271.047 457.373C266.087 456.339 262.633 455.124 261.424 454.675C260.892 453.796 258.868 450.484 256.999 447.237C255.18 444.048 253.455 440.887 252.968 439.98L253.076 439.57L252.375 439.343C251.83 439.183 249.834 438.511 247.163 437.153L235.596 431.749C233.789 430.996 232.13 429.997 230.532 429.034L219.856 422.66C219.498 421.495 218.605 418.389 217.995 415.091L205.162 406.53C205.162 406.53 203 404.862 202.5 404.862C194 398.362 192 396.862 187.058 391.359L186.499 391.637L185.853 390.996L185.5 391.637C186.002 393.168 190 398.362 204.137 408.787L216.592 416.335C217.214 419.752 218.172 421.981 218.523 423.113L218.432 423.449L229.837 430.235C231.475 431.222 233.196 432.258 235.077 433.028L246.603 438.407C249.016 439.637 250.926 440.313 251.741 440.581C252.248 441.5 253.961 444.681 255.789 447.903C257.947 451.688 260.336 455.555 260.364 455.6L260.716 456.174L261.04 456.007C262.364 456.497 265.851 457.704 270.791 458.726C271.971 458.99 273.234 459.304 274.55 459.622C279.874 460.931 286.494 462.545 293.202 463.18C294.571 463.363 295.961 463.558 297.33 463.741C300.089 464.118 302.709 464.496 305.288 464.709L323.453 465.323C326.327 465.323 326.787 465.209 326.963 464.869L331.736 460.375L336.226 455.933L338.046 455.83C338.522 455.781 339.039 455.757 339.588 455.726C340.708 455.674 342.098 455.59 343.608 455.355L360.191 452.615C364.183 451.642 368.084 450.587 371.547 449.657C373.331 449.197 374.977 448.737 376.499 448.341C378.213 447.951 379.662 447.399 380.823 446.954C381.188 446.812 381.508 446.697 381.795 446.591L384.028 445.758L388.73 436.839L390.121 436.337C390.486 436.194 390.884 436.043 391.302 435.905C392.217 435.59 393.342 435.207 394.52 434.549L407.189 428.39C410.205 426.858 413.071 425.066 415.587 423.484C416.942 422.625 418.214 421.856 419.384 421.165L423.382 418.744C423.977 418.405 424.421 418.086 424.684 417.881L432.039 418.599L440.272 419.204L442.05 417.874C442.382 417.6 442.768 417.33 443.167 417.039C444.021 416.409 445.088 415.656 446.135 414.613L457.631 404.147C460.329 401.473 462.836 398.656 465.058 396.171C466.188 394.898 467.269 393.706 468.242 392.646C468.76 392.065 469.241 391.545 469.676 391.053C470.485 390.173 471.167 389.411 471.669 388.764L473.05 386.889L472.968 386.56C472.63 385.129 471.478 380.276 470.149 375.623C468.881 371.147 467.482 366.843 467.046 365.576L468.233 363.974L476.03 350.89C477.177 349.124 478.091 347.051 478.976 345.072C479.483 343.953 479.968 342.822 480.548 341.72C481.104 340.52 481.647 339.34 482.211 338.172C483.125 336.238 484.038 334.304 484.829 332.436L490.651 315.817L489.286 315.442Z" fill="url(#paint3_linear_312_9647)"/>
<path d="M118.477 327.89C122.59 343.599 127.826 356.391 132.202 365.501C140.81 382.215 150.23 396.8 158.814 406.58C160.225 408.229 161.516 409.76 162.712 411.147C164.72 413.514 166.394 415.474 167.733 416.933L171.272 420.352L173.472 418.081L170.004 414.733C168.737 413.37 167.111 411.433 165.151 409.114C163.955 407.703 162.664 406.173 161.229 404.499C152.837 394.887 143.535 380.541 135.071 364.09C128.4 350.174 119.673 327.531 116.158 298.862C112.978 273.182 114.962 246.402 121.92 221.392C128.735 196.429 140.642 172.351 156.399 151.74C170.961 132.683 188.105 116.663 205.942 105.377C209.098 102.986 212.374 101.193 215.53 99.4475L218.208 97.9412C219.643 97.176 221.054 96.3631 222.464 95.574C224.903 94.1872 227.223 92.8721 229.518 91.844L240.039 87.3009C241.115 86.8705 242.167 86.3923 243.195 85.938C245.18 85.0533 247.045 84.2165 248.838 83.7622L266.508 78.1671L265.551 75.1304L247.953 80.7255C245.992 81.2276 244.008 82.1124 241.904 83.0688C240.9 83.4992 239.895 83.9534 238.819 84.3838L228.275 88.9508C225.788 90.0267 223.421 91.3896 220.886 92.8243C219.523 93.6133 218.137 94.4024 216.678 95.1675L213.976 96.65C210.724 98.4433 207.329 100.308 204.101 102.747C186.049 114.153 168.618 130.436 153.841 149.779C137.845 170.725 125.722 195.186 118.812 220.531C111.758 245.924 109.75 273.134 112.978 299.221C114.245 309.646 116.182 319.21 118.477 327.89Z" fill="url(#paint4_linear_312_9647)"/>
<path d="M106.139 315.815L118.549 313.209L118.118 311.105C118.047 310.746 117.927 310.124 117.76 309.407C117.521 308.355 117.234 307.064 117.018 305.557C116.875 304.027 116.66 301.947 116.397 299.628C115.919 295.204 115.345 290.183 114.938 284.42C114.077 264.025 116.66 241.023 122.064 221.488L125.029 211.541C125.674 209.317 126.296 207.237 127.109 205.42L133.636 189.471L143.225 171.371L148.27 163.6C151.928 157.551 155.658 152.888 158.671 149.158L164.481 141.865C165.055 141.124 165.366 140.765 165.461 140.67L156.351 131.847C156.351 131.847 155.634 132.564 154.463 134.07L148.772 141.22C145.687 145.045 141.479 150.282 137.51 156.905L131.03 167.067L121.968 184.426L115.44 200.422C114.341 202.837 113.575 205.467 112.834 207.978L109.845 217.997C104.059 238.871 101.309 263.307 102.242 285.162C102.696 291.331 103.27 296.71 103.748 301.014C103.987 303.262 104.226 305.27 104.37 307.04C104.681 309.24 105.015 310.842 105.302 312.133C105.422 312.659 105.517 313.137 105.589 313.543L106.139 315.815Z" fill="url(#paint5_linear_312_9647)"/>
<path d="M171.248 420.376L181.529 430.323L196.832 442.493C197.932 443.259 199.008 443.952 200.108 444.669L212.804 452.966C215.411 454.473 218.113 455.859 220.886 457.294C222.464 458.107 224.066 458.944 225.692 459.805C240.254 467.05 263.471 476.399 291.662 480.033C317.533 483.5 344.791 481.779 370.471 475.036C396.151 468.293 420.755 456.433 441.605 440.7C464.368 423.7 480.006 404.141 489.116 390.751C490.12 389.173 491.124 387.642 492.081 386.16C493.802 383.554 495.452 381.019 496.958 378.509L504.036 364.951C504.634 363.804 505.231 362.68 505.781 361.556L513.457 342.404L517.259 329.635L514.222 328.727L510.133 342.427L502.888 360.265C502.41 361.245 501.836 362.345 501.238 363.469L494.209 376.954C492.774 379.345 491.148 381.856 489.45 384.415C488.47 385.921 487.466 387.427 486.486 388.981C477.543 402.156 462.145 421.404 439.716 438.166C419.177 453.636 394.98 465.328 369.682 471.975C344.385 478.598 317.557 480.296 292.068 476.901C264.308 473.314 241.449 464.085 227.151 456.983C225.573 456.122 223.947 455.31 222.345 454.473C219.619 453.062 216.965 451.699 214.478 450.264L201.806 442.015C200.754 441.322 199.701 440.652 198.721 439.983L183.036 427.382L173.448 418.129L171.248 420.376Z" fill="url(#paint6_linear_312_9647)"/>
<path d="M275.211 486.632L284.632 488.473C285.708 488.689 286.832 488.928 288.051 489.047L305.41 490.697C318.776 491.343 344.839 491.295 372.791 484.05C400.718 476.614 423.481 463.869 434.552 456.911L449.042 446.845C450.141 446.08 451.002 445.315 451.839 444.574L459.132 438.357L450.907 428.697L444.642 434.029C444.355 434.268 443.925 434.627 443.518 435.009C442.968 435.488 442.394 435.99 441.725 436.468L427.594 446.343C410.043 457.366 388.811 466.691 369.61 471.784C350.41 476.757 327.336 479.029 306.343 478.048L289.366 476.446C288.673 476.375 287.908 476.207 287.191 476.064C286.641 475.944 286.091 475.849 285.565 475.753L277.626 474.199L275.211 486.632Z" fill="url(#paint7_linear_312_9647)"/>
<path d="M266.34 78.2387L284.417 74.4608C286.282 73.9587 288.314 73.7674 290.49 73.5762C291.614 73.4805 292.762 73.3609 293.933 73.2175L305.291 72.0219C307.801 71.7589 310.456 71.7828 313.277 71.8068C314.879 71.8068 316.529 71.8307 318.179 71.7829L321.215 71.7589C324.826 71.7111 328.556 71.6872 332.334 72.2132C353.566 73.2892 376.377 78.8604 398.399 88.3051C422.238 98.5388 444.451 113.674 462.623 132.085C480.938 150.473 495.835 172.829 505.662 196.764C516.661 223.448 520.176 247.478 521.204 262.901C521.897 281.36 520.845 298.408 518.239 310.889C517.808 313.041 517.426 315.026 517.091 316.843C516.517 319.832 516.039 322.318 515.585 324.207L514.222 328.75L517.259 329.659L518.645 325.044C519.124 323.012 519.602 320.477 520.2 317.441C520.534 315.647 520.917 313.663 521.347 311.535C524.001 298.838 525.077 281.503 524.36 262.757C523.332 247.024 519.745 222.659 508.579 195.568C498.584 171.251 483.473 148.536 464.87 129.862C446.411 111.164 423.864 95.813 399.642 85.4119C377.262 75.7998 354.092 70.1569 332.621 69.0809C328.747 68.531 324.898 68.5788 321.167 68.6027L318.131 68.6266C316.457 68.6745 314.855 68.6505 313.277 68.6505C310.384 68.6266 307.634 68.6266 304.956 68.8897L293.551 70.0852C292.379 70.2287 291.255 70.3482 290.179 70.4438C287.884 70.659 285.708 70.8503 283.676 71.4003L265.695 75.1542L266.34 78.2387Z" fill="url(#paint8_linear_312_9647)"/>
<path d="M380.92 79.315L384.961 83.0929C385.057 83.1168 385.559 83.2841 386.348 83.6189L395.075 87.1577C399.546 88.951 405.094 91.1507 411.048 94.546L423.409 101.384L436.68 110.016L449.998 120.561C451.791 121.876 453.345 123.382 454.971 124.984L462.551 132.325C476.754 146.599 490.287 165.369 499.636 183.733C502.004 188.778 503.988 193.44 505.758 197.553C506.666 199.705 507.479 201.618 508.22 203.268C508.651 204.415 509.033 205.659 509.344 206.711C509.559 207.404 509.751 208.002 509.918 208.528L510.516 210.417L522.615 206.591L521.969 204.535C521.778 203.985 521.634 203.531 521.491 203.005C521.108 201.737 520.606 200.159 519.936 198.39C519.1 196.501 518.311 194.636 517.426 192.58C515.728 188.587 513.6 183.589 511.042 178.162C501.047 158.483 486.653 138.542 471.47 123.287L463.842 115.898C461.953 114.057 460.016 112.168 457.697 110.471L443.853 99.5434L423.314 86.6556L417.121 83.4276C410.593 79.7215 404.329 77.2108 399.786 75.3936L391.226 71.9266C389.887 71.3527 388.978 71.0658 388.763 71.018L386.826 77.0435L380.92 79.315Z" fill="url(#paint9_linear_312_9647)"/>
<path d="M263.769 98.0183L263.19 96.1953L270.459 93.8834L271.038 95.7064L263.769 98.0183Z" fill="url(#paint10_linear_312_9647)"/>
<path d="M236.046 106.621L236.835 108.366C237.169 108.223 237.552 108.055 237.958 107.888L246.829 104.062L246.064 102.293L237.217 106.119C236.811 106.286 236.404 106.453 236.046 106.621ZM252.855 99.4476L253.429 101.289L256.896 100.189L256.322 98.3477L252.855 99.4476Z" fill="url(#paint11_linear_312_9647)"/>
<path d="M134.497 311.702L136.386 311.32L136.004 309.431C135.908 308.857 135.741 308.164 135.573 307.399C135.238 305.94 134.832 304.147 134.617 302.043C134.593 301.636 134.545 301.182 134.497 300.728L132.584 300.895C132.632 301.349 132.656 301.78 132.704 302.21C132.943 304.458 133.373 306.323 133.708 307.805C133.876 308.546 134.019 309.216 134.115 309.79L134.497 311.702ZM131.771 293.674L133.684 293.459C133.565 292.287 133.421 291.092 133.302 289.848L131.389 290.039C131.532 291.307 131.652 292.526 131.771 293.674ZM130.887 282.771L132.8 282.699C132.68 280.045 132.68 277.534 132.776 275.024C132.752 272.8 132.8 270.552 132.871 268.257L130.958 268.185C130.863 270.504 130.839 272.8 130.863 275C130.743 277.486 130.767 280.045 130.887 282.771ZM131.221 262.686L133.134 262.805C133.373 259.266 133.732 255.632 134.186 252.022L132.274 251.782C131.819 255.441 131.461 259.099 131.221 262.686ZM133.35 244.561L135.238 244.872C135.43 243.701 135.645 242.505 135.86 241.31L133.971 240.951C133.756 242.17 133.541 243.366 133.35 244.561ZM135.43 233.802L137.319 234.232C138.371 229.498 139.614 224.787 141.001 220.244L139.16 219.694C137.749 224.285 136.506 229.02 135.43 233.802ZM140.81 214.482L142.627 215.104C143.775 211.684 145.042 208.265 146.405 204.942L144.635 204.2C143.249 207.572 141.981 211.015 140.81 214.482ZM147.552 197.505L149.298 198.318C149.752 197.338 150.207 196.382 150.685 195.425L150.876 195.114L149.178 194.206L148.987 194.564C148.461 195.569 148.007 196.525 147.552 197.505ZM152.502 187.774L154.2 188.634C156.543 184.044 158.719 179.955 161.373 176.177L159.795 175.053C157.069 178.927 154.869 183.111 152.502 187.774ZM162.76 170.534L164.362 171.586L167.518 166.732L170.65 162.787L169.144 161.592L165.318 166.589L162.76 170.534ZM173.615 155.901L175.145 157.072C175.887 156.116 176.628 155.207 177.417 154.299L175.958 153.055C175.145 153.988 174.38 154.92 173.615 155.901ZM180.884 147.652L182.271 148.991C183.155 148.082 184.016 147.197 184.877 146.289C185.833 145.332 186.766 144.352 187.674 143.396L190.998 139.976C191.428 139.57 191.931 139.163 192.409 138.733L191.165 137.274C190.663 137.705 190.161 138.159 189.659 138.613L186.288 142.08C185.379 143.037 184.447 143.993 183.49 144.974C182.629 145.834 181.745 146.743 180.884 147.652ZM195.302 133.736L196.545 135.218L201.112 131.321C202.236 130.269 203.455 129.264 204.818 128.212L203.647 126.682C202.212 127.782 200.969 128.81 199.821 129.886L195.302 133.736ZM209.648 122.474L210.724 124.052C211.657 123.43 212.542 122.809 213.378 122.187L213.689 121.972L212.589 120.394L212.279 120.609C211.442 121.254 210.557 121.852 209.648 122.474ZM218.639 116.257L219.691 117.883C221.03 117.022 222.201 116.353 223.23 115.827L232.292 110.781L231.359 109.108L222.321 114.129C221.269 114.655 220.049 115.372 218.639 116.257Z" fill="url(#paint12_linear_312_9647)"/>
<path d="M136.769 322.582L138.658 322.199L137.103 314.715L135.214 315.098L136.769 322.582Z" fill="url(#paint13_linear_312_9647)"/>
<path d="M136.817 322.677L139.112 329.97L140.953 329.372L138.634 322.104L136.817 322.677Z" fill="url(#paint14_linear_312_9647)"/>
<path d="M141.288 336.832L142.388 340.299L144.229 339.726L143.129 336.259L141.288 336.832ZM145.257 347.066L149.059 355.889C149.226 356.32 149.393 356.702 149.561 357.085L151.306 356.296C151.139 355.961 150.996 355.578 150.828 355.172L147.002 346.301L145.257 347.066Z" fill="url(#paint15_linear_312_9647)"/>
<path d="M152.048 361.795L157.069 370.809C157.595 371.861 158.288 373.081 159.197 374.492L160.823 373.439C159.962 372.1 159.292 370.929 158.766 369.901L153.721 360.839L152.048 361.795ZM163.333 380.517L163.549 380.828C164.17 381.689 164.768 382.573 165.39 383.458L166.968 382.382C166.346 381.449 165.724 380.565 165.103 379.728L164.888 379.417L163.333 380.517ZM169.622 389.46C170.698 390.894 171.75 392.138 172.826 393.285L176.699 397.828L178.158 396.585L174.261 392.018C173.208 390.87 172.204 389.675 171.152 388.312L169.622 389.46ZM180.19 401.965C180.621 402.491 181.075 402.993 181.529 403.495L184.996 406.843C185.953 407.751 186.909 408.684 187.866 409.64C188.75 410.501 189.659 411.386 190.568 412.246L191.907 410.86C190.998 409.975 190.113 409.114 189.205 408.253C188.248 407.321 187.268 406.364 186.312 405.456L182.868 402.132C182.462 401.702 182.032 401.2 181.625 400.721L180.19 401.965ZM195.995 417.196C196.928 417.985 197.86 418.75 198.841 419.515L200.012 418.009C199.056 417.268 198.123 416.526 197.239 415.737L195.995 417.196ZM204.555 423.987L209.553 427.812L213.474 430.371L214.526 428.769L209.672 425.612L205.727 422.48L204.555 423.987ZM218.017 433.312C221.891 436.061 226.051 438.261 230.714 440.628L231.598 438.931C227.007 436.587 222.919 434.412 219.141 431.757L218.017 433.312ZM237.122 443.976L237.48 444.191C238.484 444.669 239.465 445.147 240.445 445.602L241.258 443.856C240.278 443.402 239.321 442.948 238.365 442.469L238.03 442.278L237.122 443.976ZM247.164 448.519C250.512 449.882 253.979 451.173 257.446 452.345L258.067 450.527C254.648 449.38 251.229 448.112 247.905 446.749L247.164 448.519ZM262.634 453.994C267.225 455.381 271.959 456.625 276.742 457.701L277.172 455.835C272.438 454.783 267.727 453.54 263.184 452.153L262.634 453.994ZM283.915 459.159C285.11 459.374 286.306 459.589 287.501 459.781L287.812 457.892C286.641 457.701 285.445 457.485 284.249 457.27L283.915 459.159ZM294.722 460.857C298.381 461.335 302.039 461.67 305.626 461.933L305.745 460.02C302.206 459.781 298.572 459.422 294.961 458.968L294.722 460.857ZM311.101 462.196C313.444 462.267 315.716 462.315 317.916 462.291C320.426 462.387 322.985 462.363 325.71 462.267L325.639 460.331C322.985 460.45 320.474 460.45 317.963 460.379C315.74 460.402 313.492 460.355 311.197 460.283L311.101 462.196ZM333.003 461.741C334.271 461.622 335.466 461.502 336.638 461.359L336.422 459.446C335.275 459.566 334.079 459.709 332.812 459.805L333.003 461.741ZM343.835 460.57C344.289 460.522 344.719 460.498 345.15 460.45C347.397 460.211 349.262 459.781 350.769 459.446C351.51 459.279 352.18 459.135 352.753 459.04L354.69 458.633L354.284 456.768L352.395 457.151C351.821 457.246 351.128 457.39 350.338 457.581C348.904 457.916 347.087 458.322 344.982 458.537C344.576 458.561 344.122 458.609 343.667 458.657L343.835 460.57Z" fill="url(#paint16_linear_312_9647)"/>
<path d="M358.059 457.914L357.669 456.041L365.136 454.484L365.527 456.357L358.059 457.914Z" fill="url(#paint17_linear_312_9647)"/>
<path d="M365.619 456.335L365.04 454.512L372.311 452.205L372.889 454.029L365.619 456.335Z" fill="url(#paint18_linear_312_9647)"/>
<path d="M379.199 450.001L379.772 451.843L383.239 450.743L382.666 448.902L379.199 450.001ZM389.241 446.128L390.006 447.897L398.829 444.096C399.236 443.928 399.642 443.761 400.001 443.593L399.212 441.848C398.877 441.991 398.494 442.159 398.088 442.326L389.241 446.128Z" fill="url(#paint19_linear_312_9647)"/>
<path d="M403.803 439.409L404.735 441.083L413.749 436.062C414.801 435.536 416.021 434.842 417.432 433.934L416.403 432.308C415.064 433.168 413.893 433.838 412.865 434.364L403.803 439.409ZM422.357 428.243L423.457 429.821L423.768 429.606C424.629 428.984 425.513 428.386 426.398 427.765L425.298 426.163C424.39 426.808 423.481 427.43 422.644 428.028L422.357 428.243ZM431.252 421.978L432.424 423.508C433.858 422.432 435.102 421.38 436.249 420.328L440.792 416.455L439.549 414.996L434.982 418.87C433.834 419.946 432.615 420.95 431.252 421.978ZM443.686 411.481L444.929 412.94C445.431 412.51 445.933 412.079 446.435 411.601L449.783 408.134C450.691 407.178 451.624 406.221 452.58 405.265C453.441 404.38 454.326 403.471 455.21 402.563L453.824 401.224C452.939 402.132 452.078 403.017 451.217 403.926C450.261 404.906 449.328 405.862 448.42 406.819L445.096 410.262C444.642 410.621 444.164 411.051 443.686 411.481ZM458.677 395.892L460.136 397.135C460.925 396.203 461.69 395.27 462.455 394.29L460.925 393.118C460.208 394.074 459.443 394.983 458.677 395.892ZM465.42 387.403L466.927 388.599L470.752 383.602L473.311 379.68L471.709 378.628L468.553 383.482L465.42 387.403ZM474.698 374.013L476.276 375.113C479.025 371.264 481.201 367.079 483.592 362.417L481.871 361.532C479.528 366.147 477.376 370.26 474.698 374.013ZM485.242 355.1L486.94 356.009L487.131 355.65C487.633 354.646 488.088 353.666 488.542 352.685L486.796 351.872C486.342 352.853 485.888 353.809 485.41 354.765L485.242 355.1ZM489.666 345.249L491.435 345.99C492.798 342.643 494.089 339.176 495.261 335.709L493.444 335.087C492.296 338.53 491.029 341.949 489.666 345.249ZM495.093 329.946L496.935 330.52C498.321 325.929 499.565 321.195 500.641 316.389L498.752 315.982C497.724 320.693 496.48 325.403 495.093 329.946ZM500.21 308.881L502.099 309.216C502.314 308.02 502.53 306.825 502.721 305.629L500.808 305.318C500.641 306.49 500.449 307.685 500.21 308.881ZM501.884 298.169L503.797 298.408C504.251 294.75 504.61 291.091 504.849 287.505L502.936 287.385C502.697 290.924 502.338 294.558 501.884 298.169ZM503.223 281.958L505.16 282.029C505.255 279.686 505.279 277.415 505.255 275.215C505.351 272.704 505.327 270.146 505.208 267.42L503.295 267.492C503.414 270.146 503.414 272.656 503.343 275.167C503.343 277.415 503.295 279.662 503.223 281.958ZM502.769 260.318L504.682 260.127C504.562 258.884 504.442 257.664 504.299 256.517L502.386 256.732C502.53 257.88 502.649 259.075 502.769 260.318ZM501.597 249.487L503.51 249.296C503.462 248.841 503.438 248.411 503.39 248.004C503.151 245.757 502.721 243.892 502.386 242.385C502.219 241.644 502.075 240.999 501.98 240.401L501.573 238.488L499.684 238.871L500.091 240.76C500.186 241.333 500.33 242.027 500.521 242.816C500.856 244.251 501.262 246.068 501.478 248.172C501.501 248.578 501.549 249.033 501.597 249.487Z" fill="url(#paint20_linear_312_9647)"/>
<path d="M498.991 235.475L500.856 235.093L499.302 227.609L497.413 228.015L498.991 235.475Z" fill="url(#paint21_linear_312_9647)"/>
<path d="M495.141 220.818L497.437 228.111L499.278 227.513L496.982 220.244L495.141 220.818Z" fill="url(#paint22_linear_312_9647)"/>
<path d="M484.764 193.895C484.931 194.229 485.075 194.612 485.242 195.019L489.068 203.889L490.837 203.124L487.035 194.301C486.868 193.895 486.701 193.488 486.533 193.106L484.764 193.895ZM491.865 210.489L492.965 213.956L494.806 213.382L493.707 209.915L491.865 210.489Z" fill="url(#paint23_linear_312_9647)"/>
<path d="M281.835 93.4461L283.723 93.0635C284.297 92.9679 284.991 92.8244 285.78 92.6331C287.238 92.3223 289.032 91.8919 291.136 91.6767C291.542 91.6528 291.997 91.6049 292.451 91.5571L292.283 89.6443C291.829 89.6921 291.399 89.716 290.968 89.7638C288.721 90.0029 286.856 90.4333 285.349 90.7681C284.608 90.9354 283.939 91.0789 283.365 91.1746L281.428 91.5811L281.835 93.4461ZM299.672 90.7442C300.82 90.6246 302.039 90.4812 303.282 90.3616L303.091 88.4488C301.848 88.5683 300.628 88.6879 299.457 88.8313L299.672 90.7442ZM310.456 89.8595C313.11 89.7399 315.62 89.7399 318.131 89.8117C320.355 89.7878 322.602 89.8356 324.898 89.9073L324.969 87.9945C322.626 87.8988 320.355 87.8749 318.155 87.8988C315.644 87.8032 313.086 87.8271 310.36 87.9227L310.456 89.8595ZM330.325 90.2181C333.864 90.4572 337.498 90.8159 341.109 91.2702L341.348 89.3574C337.69 88.9031 334.031 88.5444 330.445 88.3053L330.325 90.2181ZM348.258 92.2984C349.43 92.4896 350.625 92.7049 351.821 92.9201L352.18 91.0311C350.984 90.792 349.789 90.6007 348.569 90.3855L348.258 92.2984ZM358.898 94.3547C363.633 95.4067 368.343 96.6501 372.886 98.0369L373.436 96.1958C368.845 94.809 364.111 93.5417 359.305 92.4896L358.898 94.3547ZM378.051 99.6868C381.47 100.834 384.889 102.102 388.213 103.465L388.93 101.671C385.583 100.308 382.116 99.0173 378.673 97.8456L378.051 99.6868ZM394.812 106.334C395.793 106.788 396.749 107.243 397.705 107.721L398.016 107.888L398.925 106.19L398.566 105.999C397.562 105.497 396.582 105.043 395.601 104.588L394.812 106.334ZM404.496 111.26C409.087 113.603 413.176 115.779 416.953 118.433L418.053 116.855C414.18 114.105 410.019 111.905 405.357 109.538L404.496 111.26ZM421.544 121.445L426.398 124.602L430.343 127.734L431.539 126.228L426.542 122.402L422.62 119.843L421.544 121.445ZM436.058 132.205C437.014 132.946 437.947 133.712 438.832 134.477L440.075 133.018C439.143 132.229 438.21 131.44 437.23 130.699L436.058 132.205ZM444.164 139.331C445.072 140.215 445.957 141.076 446.866 141.937C447.846 142.893 448.802 143.826 449.759 144.734L453.202 148.058C453.608 148.488 454.015 148.99 454.445 149.469L455.904 148.225C455.474 147.723 455.019 147.221 454.565 146.719L451.098 143.348C450.141 142.439 449.185 141.506 448.229 140.574C447.344 139.689 446.435 138.828 445.527 137.944L444.164 139.331ZM457.936 153.605L461.834 158.172C462.886 159.296 463.89 160.515 464.942 161.878L466.472 160.731C465.396 159.296 464.344 158.053 463.268 156.905L459.419 152.362L457.936 153.605ZM469.079 167.808C469.7 168.717 470.322 169.625 470.944 170.462L471.183 170.773L472.761 169.649L472.522 169.338C471.9 168.478 471.278 167.617 470.681 166.708L469.079 167.808ZM475.248 176.751C476.108 178.09 476.778 179.237 477.28 180.289L482.325 189.352L483.999 188.419L478.978 179.405C478.452 178.353 477.758 177.133 476.85 175.723L475.248 176.751Z" fill="url(#paint24_linear_312_9647)"/>
<path d="M270.946 95.7031L270.554 93.8308L278.02 92.2687L278.412 94.1409L270.946 95.7031Z" fill="url(#paint25_linear_312_9647)"/>
<path d="M98.7029 326.67L100.759 326.24L99.0377 317.967L96.9814 318.397L98.7029 326.67ZM95.2598 310.124L97.34 309.718L97.2205 309.192L96.4075 301.421L94.3034 301.636L95.2598 310.124ZM93.4187 293.195L95.5228 292.98L95.1403 289.298C94.9729 287.959 94.9011 286.548 94.8772 284.635L92.7731 284.659C92.797 286.62 92.8687 288.126 93.06 289.537L93.4187 293.195ZM92.7253 276.219H94.8294L94.8055 267.755L92.7014 267.778L92.7253 276.219ZM93.2274 259.218L95.3315 259.41L96.1206 251.041L94.0165 250.826L93.2274 259.218ZM94.8772 242.314L96.9575 242.672C97.1487 241.572 97.3639 240.449 97.6031 239.349C97.7704 238.488 97.9617 237.627 98.1052 236.742L98.5595 234.399L96.4792 233.993L96.0249 236.36C95.8576 237.221 95.6902 238.081 95.5228 238.942C95.3076 240.066 95.0685 241.19 94.8772 242.314ZM98.1052 225.672L100.185 226.078L101.022 221.822C101.357 220.579 101.716 219.264 102.098 217.949L100.066 217.375C99.6833 218.714 99.3246 220.029 98.966 221.368L98.1052 225.672ZM102.481 209.221L104.489 209.867C105.326 207.213 106.235 204.559 107.167 201.881L105.207 201.163C104.25 203.865 103.342 206.543 102.481 209.221ZM108.172 193.201L110.132 193.99C111.16 191.384 112.212 188.778 113.336 186.195L111.399 185.358C110.252 187.965 109.2 190.595 108.172 193.201ZM114.867 177.611L116.779 178.496C117.975 175.962 119.218 173.451 120.486 170.94L118.597 169.96C117.329 172.518 116.086 175.053 114.867 177.611ZM122.661 162.476L124.479 163.552L125.148 162.356C126.344 160.372 127.587 158.363 128.854 156.379L127.085 155.231C125.794 157.216 124.55 159.248 123.331 161.28L122.661 162.476ZM131.819 148.177L133.565 149.397C135.167 147.078 136.816 144.806 138.49 142.558L136.793 141.291C135.095 143.539 133.421 145.834 131.819 148.177ZM141.957 134.548L143.607 135.863C145.353 133.664 147.146 131.512 148.963 129.36L147.361 127.997C145.544 130.149 143.727 132.349 141.957 134.548ZM152.98 121.637L154.534 123.071C156.447 120.991 158.36 118.935 160.321 116.95L158.814 115.468C156.854 117.476 154.917 119.556 152.98 121.637ZM164.959 109.514L166.322 111.116L172.754 105.64L171.391 104.038L164.959 109.514ZM177.823 98.5629L179.21 100.165C180.238 99.2802 181.242 98.4194 182.318 97.6304L185.881 95.1676L184.686 93.4221L181.099 95.9088C179.927 96.7457 178.875 97.6304 177.823 98.5629ZM191.596 88.5682L192.791 90.3137L199.654 85.5794L198.625 83.7383L197.43 84.5273L191.596 88.5682ZM206.038 79.6017L207.066 81.4429L210.676 79.4344C211.968 78.7649 213.235 78.0237 214.454 77.3302L213.402 75.4891C212.183 76.1825 210.939 76.8999 209.648 77.5694L206.038 79.6017ZM221.054 71.5917L221.891 73.5285L229.661 70.181L228.825 68.2442L221.054 71.5917ZM236.572 64.8967L237.409 66.8335L239.465 65.9488L245.275 64.1077L244.63 62.0992L238.724 63.9881L236.572 64.8967ZM252.711 59.5168L253.357 61.5253L261.415 58.9669L260.769 56.9584L252.711 59.5168Z" fill="url(#paint26_linear_312_9647)"/>
<path d="M99.8985 332.361L102.457 340.419L104.465 339.773L101.907 331.715L99.8985 332.361ZM105.015 348.477L106.904 354.407L107.837 356.582L109.774 355.746L108.889 353.689L107.048 347.879L105.015 348.477ZM111.184 364.33L114.532 372.1L116.469 371.264L113.121 363.517L111.184 364.33ZM118.429 379.728C119.123 380.947 119.84 382.191 120.509 383.482L122.542 387.116L124.383 386.088L122.374 382.478C121.705 381.187 120.964 379.943 120.27 378.7L118.429 379.728ZM126.655 394.481L127.444 395.676L131.508 401.534L133.254 400.339L128.52 393.477L126.655 394.481ZM136.338 408.492L138.825 412.079C139.686 413.203 140.57 414.279 141.479 415.331L143.081 413.944C142.196 412.916 141.336 411.912 140.547 410.836L138.084 407.273L136.338 408.492ZM146.979 421.739L152.454 428.171L154.056 426.808L148.581 420.376L146.979 421.739ZM158.408 434.316C160.416 436.277 162.473 438.213 164.577 440.15L166.011 438.596C163.931 436.683 161.875 434.746 159.89 432.81L158.408 434.316ZM170.961 445.769C173.113 447.586 175.289 449.404 177.512 451.173L178.827 449.523C176.628 447.778 174.452 445.984 172.348 444.167L170.961 445.769ZM184.231 456.362C186.503 458.059 188.798 459.709 191.118 461.335L192.313 459.589C189.994 457.987 187.722 456.338 185.475 454.664L184.231 456.362ZM198.171 466.045C200.156 467.337 202.188 468.58 204.221 469.799L205.416 470.469L206.492 468.652L205.297 467.982C203.312 466.787 201.303 465.543 199.343 464.276L198.171 466.045ZM212.924 474.51C215.459 475.801 217.993 477.068 220.552 478.264L221.46 476.351C218.926 475.155 216.415 473.912 213.904 472.645L212.924 474.51ZM228.299 481.755C230.905 482.878 233.535 483.954 236.165 484.983L236.93 483.022C234.324 481.994 231.742 480.942 229.135 479.818L228.299 481.755ZM244.127 487.947C246.805 488.904 249.507 489.789 252.185 490.649L252.831 488.641C250.177 487.804 247.499 486.895 244.845 485.963L244.127 487.947ZM260.315 493.088C261.654 493.471 262.969 493.829 264.308 494.164L268.636 495.001L269.042 492.945L264.786 492.108C263.543 491.773 262.228 491.415 260.889 491.032L260.315 493.088ZM276.933 496.651L279.3 497.105C280.185 497.273 281.022 497.44 281.882 497.607C283.006 497.846 284.154 498.062 285.278 498.253L285.612 496.173C284.512 496.005 283.413 495.766 282.289 495.551C281.428 495.384 280.567 495.216 279.683 495.049L277.315 494.595L276.933 496.651ZM293.766 499.138L302.159 499.927L302.35 497.823L293.981 497.034L293.766 499.138ZM310.695 500.429L319.159 500.405V498.301L310.695 498.325V500.429ZM327.623 500.381C329.608 500.357 331.09 500.285 332.501 500.094L336.159 499.712L335.944 497.607L332.262 497.99C330.923 498.157 329.512 498.229 327.623 498.253V500.381ZM344.552 498.827L353.04 497.87L352.634 495.79L352.108 495.91L344.313 496.723L344.552 498.827ZM361.361 496.173L369.634 494.451L369.204 492.395L360.931 494.116L361.361 496.173Z" fill="url(#paint27_linear_312_9647)"/>
<path d="M374.656 491.223L375.301 493.232L383.359 490.673L382.713 488.665L374.656 491.223ZM390.795 486.106L391.441 488.115L397.371 486.226L399.523 485.293L398.686 483.357L396.629 484.241L390.795 486.106ZM406.433 480.009L407.27 481.946L415.041 478.598L414.204 476.662L406.433 480.009ZM421.616 472.884L422.668 474.725C423.888 474.031 425.131 473.314 426.422 472.645L430.057 470.636L429.028 468.771L425.418 470.78C424.127 471.449 422.859 472.166 421.616 472.884ZM436.417 464.635L437.421 466.5L438.617 465.711L444.499 461.646L443.279 459.9L436.417 464.635ZM450.213 455.046L451.433 456.792L455.019 454.281C456.143 453.444 457.195 452.536 458.271 451.627L456.884 450.025C455.856 450.91 454.852 451.771 453.776 452.56L450.213 455.046ZM463.316 444.55L464.679 446.152L471.111 440.676L469.748 439.074L463.316 444.55ZM475.75 433.24L477.256 434.722C479.217 432.714 481.154 430.658 483.09 428.553L481.536 427.119C479.623 429.199 477.686 431.255 475.75 433.24ZM487.107 420.806L488.709 422.169C490.55 420.041 492.344 417.841 494.113 415.642L492.463 414.327C490.718 416.526 488.924 418.678 487.107 420.806ZM497.604 407.656L499.302 408.923C500.999 406.651 502.649 404.356 504.251 402.036L502.506 400.841C500.928 403.136 499.278 405.408 497.604 407.656ZM507.216 393.811L508.986 394.959C510.277 392.974 511.52 390.942 512.739 388.91L513.409 387.714L511.592 386.638L510.922 387.834C509.727 389.842 508.483 391.851 507.216 393.811ZM515.561 379.226L517.45 380.182C518.741 377.648 519.984 375.113 521.204 372.555L519.291 371.646C518.095 374.228 516.852 376.739 515.561 379.226ZM522.758 364.019L524.695 364.855C525.819 362.249 526.895 359.619 527.923 357.013L525.962 356.248C524.934 358.806 523.858 361.412 522.758 364.019ZM528.903 348.309L530.888 349.027C531.844 346.349 532.753 343.671 533.59 340.969L531.581 340.323C530.72 343.001 529.836 345.655 528.903 348.309ZM533.996 332.265L536.028 332.839C536.411 331.524 536.77 330.185 537.128 328.87L537.965 324.542L535.885 324.136L535.048 328.392C534.737 329.635 534.355 330.95 533.996 332.265ZM537.511 315.815L539.591 316.221L540.045 313.854C540.213 312.969 540.38 312.133 540.548 311.272C540.787 310.124 541.002 309 541.193 307.876L539.113 307.518C538.922 308.618 538.706 309.718 538.467 310.841C538.3 311.702 538.109 312.563 537.965 313.448L537.511 315.815ZM539.974 299.149L542.078 299.364L542.867 290.996L540.763 290.804L539.974 299.149ZM541.265 282.459H543.393L543.369 273.995H541.265V282.459ZM541.217 265.531L543.321 265.507C543.297 263.546 543.226 262.04 543.034 260.629L542.652 256.971L540.548 257.186L540.93 260.868C541.121 262.231 541.193 263.666 541.217 265.531ZM539.663 248.817L541.767 248.602L540.811 240.09L538.73 240.52L538.826 241.046L539.663 248.817ZM537.033 232.223L539.089 231.793L537.367 223.52L535.311 223.95L537.033 232.223Z" fill="url(#paint28_linear_312_9647)"/>
<path d="M266.89 57.843L275.163 56.1215L274.733 54.0652L266.46 55.7867L266.89 57.843ZM283.436 54.376L283.963 54.2803L291.757 53.4674L291.542 51.3632L283.03 52.3197L283.436 54.376ZM300.15 52.5827L303.832 52.2001C305.171 52.0328 306.582 51.961 308.471 51.9371L308.447 49.833C306.462 49.8569 304.98 49.9286 303.569 50.1199L299.911 50.5025L300.15 52.5827ZM316.935 51.9132L325.4 51.8893L325.376 49.7612L316.911 49.7851L316.935 51.9132ZM333.721 52.3675L342.089 53.1565L342.328 51.0524L333.936 50.2634L333.721 52.3675ZM350.482 54.0412C351.582 54.2325 352.706 54.4477 353.805 54.6629C354.666 54.8303 355.527 55.0216 356.412 55.165L358.755 55.6193L359.161 53.5391L356.794 53.0848C355.91 52.9414 355.073 52.7501 354.212 52.5827C353.088 52.3675 351.94 52.1284 350.817 51.9371L350.482 54.0412ZM367.052 57.2453L371.308 58.0821C372.551 58.4169 373.866 58.7755 375.182 59.1342L375.755 57.1018C374.416 56.7193 373.101 56.3606 371.762 56.0019L367.435 55.165L367.052 57.2453ZM383.287 61.5731C385.941 62.41 388.619 63.3186 391.273 64.2511L391.991 62.2665C389.313 61.3101 386.611 60.4254 383.933 59.5646L383.287 61.5731ZM399.164 67.1921C401.77 68.1963 404.353 69.2723 406.959 70.3961L407.796 68.4594C405.189 67.3356 402.559 66.2596 399.953 65.2314L399.164 67.1921ZM414.634 73.8393C417.169 75.0348 419.679 76.2542 422.19 77.5454L423.146 75.6804C420.612 74.3892 418.077 73.1219 415.519 71.9264L414.634 73.8393ZM429.602 81.5385L430.798 82.208C432.782 83.4035 434.791 84.6468 436.751 85.9141L437.899 84.1447C435.915 82.8536 433.906 81.6102 431.85 80.3908L430.654 79.7213L429.602 81.5385ZM443.757 90.6006C446.077 92.2026 448.348 93.8524 450.596 95.5262L451.863 93.8286C449.615 92.1309 447.296 90.4811 444.977 88.8551L443.757 90.6006ZM457.267 100.667C459.467 102.412 461.642 104.206 463.77 106.023L465.133 104.421C462.981 102.604 460.806 100.787 458.582 99.0172L457.267 100.667ZM470.059 111.594C472.139 113.507 474.195 115.42 476.18 117.381L477.663 115.874C475.654 113.913 473.598 111.977 471.494 110.04L470.059 111.594ZM482.014 123.382L487.49 129.814L489.092 128.451L483.616 122.019L482.014 123.382ZM492.989 136.27C493.874 137.298 494.735 138.302 495.524 139.378L497.987 142.941L499.732 141.745L497.245 138.159C496.408 137.011 495.5 135.959 494.591 134.907L492.989 136.27ZM502.84 149.875L507.575 156.737L509.44 155.709L508.651 154.514L504.586 148.632L502.84 149.875ZM511.711 164.126L513.72 167.736C514.389 169.004 515.13 170.295 515.824 171.514L517.665 170.462C516.972 169.243 516.254 167.999 515.585 166.708L513.552 163.098L511.711 164.126ZM519.602 178.95L522.949 186.721L524.886 185.884L521.539 178.114L519.602 178.95ZM526.321 194.468L527.205 196.549L529.046 202.359L531.055 201.713L529.166 195.783L528.234 193.632L526.321 194.468ZM531.605 210.417L534.163 218.475L536.172 217.829L533.613 209.771L531.605 210.417Z" fill="url(#paint29_linear_312_9647)"/>
<path d="M119.864 139.474C119.983 139.881 120.199 140.215 120.509 140.43C120.868 140.646 121.275 140.717 121.705 140.646C122.112 140.55 122.494 140.287 122.733 139.928L123.666 138.47C123.857 138.207 124 137.944 124.192 137.681C124.455 137.226 124.813 136.724 125.196 136.15C125.674 135.505 125.483 134.453 124.789 133.951C124.096 133.472 123.14 133.64 122.614 134.333C122.159 134.979 121.801 135.553 121.49 136.031C121.346 136.294 121.179 136.509 121.012 136.724L120.055 138.255C119.816 138.613 119.744 139.068 119.864 139.474ZM143.727 110.303C143.798 110.59 143.918 110.877 144.133 111.068C144.42 111.331 144.803 111.499 145.257 111.522C145.687 111.499 146.094 111.331 146.381 110.996C146.979 110.399 146.955 109.371 146.333 108.773C145.735 108.151 144.731 108.199 144.109 108.797C144.061 108.797 144.085 108.845 144.085 108.845C143.727 109.275 143.607 109.825 143.727 110.303ZM173.926 83.4275C173.974 83.5949 174.069 83.7861 174.141 83.9296C174.404 84.2404 174.763 84.5035 175.193 84.5752C175.6 84.6469 176.03 84.5752 176.365 84.36C176.723 84.097 177.106 83.8579 177.56 83.571L189.802 75.0827C191.596 73.7437 193.533 72.6677 195.589 71.4961L195.828 71.4005C197.813 70.3006 199.749 69.2007 201.662 68.1247L202.045 67.9334C203.527 67.0966 205.01 66.2836 206.468 65.4467C208.979 64.036 211.37 62.6731 213.713 61.5493C216.391 60.4255 218.973 59.3017 221.412 58.2257L225.429 56.5042C228.609 55.1173 231.55 53.8501 234.157 52.7263C235.902 52.1046 237.6 51.5547 239.082 51.1243C239.919 50.8612 240.732 50.5982 241.497 50.3591C245.634 48.9962 248.025 48.255 248.025 48.255C248.838 47.9919 249.268 47.179 249.053 46.366L249.029 46.2943C248.766 45.4574 247.905 45.0031 247.068 45.2901C247.068 45.2901 244.558 46.0791 240.517 47.3464C239.8 47.5855 239.034 47.8246 238.221 48.0876C236.667 48.5419 234.898 49.0918 232.985 49.7613L232.913 49.8331C230.977 50.646 228.944 51.5307 226.744 52.4872L212.398 58.6561C209.84 59.8995 207.377 61.3341 204.747 62.7926C203.384 63.5578 201.973 64.3468 200.514 65.1359C199.415 65.7815 198.315 66.3792 197.191 67.0009L194.059 68.7464C192.026 69.8463 189.922 71.0179 187.961 72.4764C185.044 74.5088 182.079 76.5651 179.162 78.5975L175.791 80.9169C175.432 81.1799 175.002 81.419 174.595 81.7059C174.021 82.0885 173.758 82.758 173.926 83.4275Z" fill="url(#paint30_linear_312_9647)"/>
<path d="M85.2891 336.091C90.7168 356.822 98.8703 376.715 109.558 395.246C109.726 395.605 110.061 395.868 110.491 395.963C110.921 396.083 111.352 396.035 111.71 395.82C112.428 395.413 112.691 394.409 112.284 393.668C101.811 375.424 93.7296 355.77 88.3736 335.374L88.2779 335.039C87.0107 330.209 85.8869 325.26 84.9304 320.262L84.9065 319.975C84.8109 319.473 84.6913 318.995 84.5957 318.493C84.4044 317.584 83.6154 317.058 82.7307 317.226C82.3242 317.297 81.9655 317.512 81.7264 317.895C81.5112 318.206 81.4156 318.684 81.4634 319.091C81.559 319.617 81.7025 320.19 81.8221 320.788L81.846 320.86C82.8024 325.905 83.974 331.022 85.2891 336.091ZM80.2679 311.87C80.4831 312.683 81.2721 313.185 82.0612 313.065C82.898 312.922 83.5197 312.109 83.3762 311.224V311.176C83.2567 310.387 82.4437 309.765 81.6069 309.909C80.77 310.052 80.1961 310.841 80.2679 311.654C80.22 311.75 80.244 311.846 80.2679 311.87ZM77.5181 278.897C77.7094 279.59 78.355 280.092 79.0484 280.068C79.4788 280.092 79.8853 279.901 80.1961 279.59C80.4592 279.303 80.6265 278.897 80.6504 278.466C80.6265 277.582 79.8853 276.864 79.0006 276.888C78.1398 276.912 77.4464 277.653 77.4703 278.514V278.562C77.4703 278.682 77.4703 278.777 77.5181 278.897ZM80.2918 238.512C80.4592 239.11 80.9613 239.564 81.6069 239.659C82.0133 239.731 82.4198 239.612 82.7546 239.396C83.0893 239.133 83.3284 238.751 83.4002 238.344C83.5914 237.077 83.7827 235.834 83.9979 234.614C87.5845 211.158 95.2359 192.579 100.807 179.022L101.835 176.464V176.416C103.939 172.112 105.9 168.406 107.478 165.417C108.076 164.341 108.602 163.337 109.056 162.428C109.056 162.428 109.056 162.428 109.08 162.38C109.415 161.687 109.104 160.659 108.363 160.3C107.598 159.894 106.641 160.228 106.235 160.993C105.781 161.902 105.254 162.859 104.705 163.934C103.103 166.971 101.118 170.725 98.966 175.196L98.9421 175.244C98.5834 176.177 98.2008 177.061 97.8183 177.994C92.2232 191.647 84.5479 210.369 80.9135 234.088C80.6743 235.379 80.4831 236.599 80.2918 237.89C80.244 238.081 80.244 238.297 80.2918 238.512ZM132.465 428.123C132.513 428.338 132.656 428.553 132.8 428.745C133.063 429.079 133.469 429.271 133.852 429.295C134.282 429.319 134.712 429.199 135.023 428.936C135.669 428.362 135.741 427.358 135.215 426.688C134.951 426.378 134.545 426.162 134.162 426.138C133.708 426.091 133.302 426.234 132.991 426.497C132.537 426.88 132.321 427.501 132.465 428.123ZM155.371 452.058C155.467 452.392 155.61 452.655 155.849 452.847C156.471 453.421 157.475 453.397 158.097 452.751C158.623 452.129 158.623 451.077 158.001 450.503C157.356 449.93 156.328 449.977 155.754 450.599C155.347 451.006 155.228 451.555 155.371 452.058ZM160.895 456.959C160.99 457.294 161.134 457.557 161.373 457.796C171.248 466.308 181.816 473.936 192.696 480.559C204.699 487.948 217.587 494.308 231.024 499.496C231.407 499.64 231.861 499.664 232.244 499.472C232.626 499.281 232.937 498.994 233.057 498.612C233.368 497.823 232.937 496.842 232.172 496.531C218.95 491.438 206.229 485.15 194.345 477.857C183.634 471.354 173.208 463.774 163.429 455.357C163.094 455.094 162.712 454.927 162.281 454.999C161.851 455.023 161.468 455.214 161.205 455.549C160.895 455.955 160.751 456.457 160.895 456.959ZM109.511 155.566C109.63 155.972 109.893 156.379 110.3 156.594C111.065 157 112.021 156.666 112.428 155.901C112.81 155.183 112.499 154.179 111.734 153.772C110.993 153.414 110.061 153.701 109.63 154.418C109.63 154.418 109.582 154.418 109.606 154.466C109.439 154.801 109.415 155.207 109.511 155.566ZM268.923 509.802C269.066 510.376 269.544 510.83 270.142 510.926C271.003 511.093 271.84 510.519 272.007 509.706C272.175 508.869 271.601 508.009 270.788 507.841C269.903 507.674 269.09 508.248 268.923 509.061C268.827 509.3 268.851 509.563 268.923 509.802ZM301.728 514.225C301.896 514.895 302.469 515.349 303.115 515.397C303.569 515.445 303.976 515.301 304.287 515.038C304.621 514.775 304.813 514.369 304.837 513.986C304.908 513.125 304.239 512.336 303.378 512.265C303.378 512.265 303.33 512.265 303.33 512.241C302.948 512.265 302.541 512.36 302.254 512.623C301.943 512.934 301.728 513.293 301.68 513.723C301.68 513.891 301.68 514.058 301.728 514.225ZM309.069 514.56C309.26 515.277 309.906 515.732 310.647 515.732C313.134 515.732 315.548 515.708 317.868 515.732H322.889C323.559 515.732 324.18 515.708 324.85 515.708C328.556 515.708 332.071 515.684 335.299 515.23L352.347 513.436C354.618 513.245 356.149 512.958 357.01 512.743L357.679 512.599C358.181 512.48 358.42 512.456 358.54 512.432C358.946 512.312 359.281 512.097 359.544 511.715C359.759 511.404 359.855 510.926 359.759 510.519C359.568 509.658 358.731 509.132 357.918 509.3C357.918 509.3 357.368 509.395 356.34 509.611C355.479 509.826 354.069 510.137 352.084 510.256C348.856 510.591 344.385 511.045 338.766 511.667L334.892 512.073C331.879 512.552 328.341 512.575 324.563 512.552L320.331 512.575C317.27 512.599 314.042 512.599 310.647 512.623C310.647 512.623 310.647 512.623 310.599 512.623C309.738 512.623 309.045 513.341 309.045 514.201C309.045 514.321 309.045 514.44 309.069 514.56Z" fill="url(#paint31_linear_312_9647)"/>
<path d="M387.041 503.824C387.041 503.872 387.041 503.872 387.065 503.896C387.328 504.733 388.237 505.211 389.05 504.9C389.05 504.9 389.241 504.852 389.671 504.733L395.601 502.82C396.319 502.605 397.108 502.342 397.897 502.103C399.475 501.648 401.22 501.098 403.133 500.405L403.205 500.333C406.002 499.114 409.135 497.775 412.602 496.292C414.443 495.503 416.356 494.642 418.364 493.782L423.72 491.51C426.279 490.267 428.789 488.832 431.419 487.35C432.782 486.585 434.193 485.796 435.628 485.03C437.684 483.883 439.74 482.735 441.844 481.563L442.107 481.42C444.14 480.32 446.244 479.148 448.205 477.666L460.327 469.249C460.758 469.01 461.116 468.747 461.523 468.46C462.24 468.03 462.408 466.978 461.953 466.261C461.451 465.567 460.495 465.376 459.753 465.83C459.395 466.093 459.06 466.332 458.654 466.595L457.984 467.026C454.087 469.704 450.213 472.43 446.34 475.107C444.57 476.494 442.538 477.594 440.434 478.766L440.314 478.79C439.214 479.411 438.09 480.033 436.991 480.655L434.121 482.233C432.591 483.07 431.156 483.883 429.698 484.696C427.139 486.106 424.796 487.469 422.429 488.617L410.761 493.638C407.58 495.001 404.639 496.292 402.009 497.416C400.24 498.038 398.566 498.588 397.06 499.018C396.223 499.281 395.458 499.52 394.669 499.783C390.556 501.122 388.213 501.816 388.165 501.84C387.304 502.174 386.826 503.011 387.041 503.824ZM489.307 440.676C489.379 440.963 489.522 441.178 489.714 441.393C490.024 441.704 490.455 441.848 490.837 441.848C491.268 441.872 491.674 441.68 491.985 441.37C492.559 440.724 492.559 439.696 491.913 439.122C491.626 438.859 491.22 438.692 490.789 438.668C490.359 438.692 489.953 438.835 489.69 439.17C489.283 439.6 489.164 440.15 489.307 440.676ZM510.635 415.331C510.731 415.714 510.946 416.024 511.281 416.263C511.974 416.742 512.979 416.574 513.481 415.857C513.887 415.259 514.246 414.733 514.557 414.255C514.748 413.944 514.891 413.681 515.059 413.466L516.015 411.96C516.493 411.266 516.254 410.238 515.561 409.76C514.82 409.305 513.839 409.497 513.385 410.238L512.405 411.72C512.261 411.983 512.07 412.246 511.879 412.509C511.592 412.988 511.257 413.49 510.874 414.04C510.611 414.422 510.516 414.877 510.635 415.331Z" fill="url(#paint32_linear_312_9647)"/>
<path d="M276.311 39.7427C276.526 40.6035 277.315 41.1056 278.152 40.9143C278.2 40.9143 278.726 40.8187 279.778 40.5796C280.543 40.3644 281.93 40.1014 284.034 39.934C287.979 39.5036 293.766 38.9058 301.178 38.1407C304.167 37.6625 307.61 37.6864 311.268 37.6386C311.89 37.6625 312.536 37.6625 313.205 37.6625C317.055 37.6625 321.144 37.6386 325.471 37.5908C325.902 37.6147 326.308 37.4234 326.571 37.1365C326.882 36.8256 327.049 36.443 327.073 36.0127C327.073 35.1758 326.308 34.4585 325.471 34.4106L324.563 34.4345C320.546 34.4824 316.744 34.4824 313.205 34.4824C312.512 34.4824 311.818 34.5063 311.101 34.5063C307.419 34.5063 303.976 34.4824 300.772 34.9845L283.723 36.8017C281.548 36.9691 279.993 37.256 279.061 37.4951L278.344 37.6386C277.889 37.7581 277.626 37.782 277.554 37.8059C277.554 37.8059 277.554 37.8059 277.507 37.8059C276.67 37.9733 276.12 38.8341 276.311 39.6949V39.7427ZM331.282 36.7778C331.449 37.4234 332.023 37.9016 332.668 37.9494C333.075 38.0211 333.529 37.8538 333.84 37.5908C334.151 37.2799 334.366 36.9212 334.39 36.4909C334.486 35.6779 333.792 34.8649 332.955 34.8171C332.095 34.7215 331.306 35.3671 331.234 36.2278C331.21 36.3952 331.234 36.6104 331.282 36.7778ZM364.087 41.2491C364.23 41.8229 364.709 42.2533 365.306 42.3729C365.737 42.4685 366.191 42.3729 366.526 42.1338C366.908 41.8947 367.124 41.536 367.172 41.1295C367.387 40.2927 366.765 39.4319 365.952 39.2645C365.522 39.1449 365.115 39.2645 364.733 39.4797C364.398 39.6949 364.135 40.0774 364.087 40.4839C364.063 40.723 364.039 40.9861 364.087 41.2491ZM402.966 52.5588C403.085 53.0609 403.468 53.4435 403.946 53.6109C417.193 58.7517 429.889 65.0402 441.725 72.3329C452.437 78.7888 462.814 86.3924 472.641 94.8328C473.311 95.4067 474.291 95.311 474.865 94.6893C475.439 94.0198 475.367 92.9917 474.698 92.4178C464.775 83.8817 454.23 76.2303 443.375 69.631C431.372 62.2426 418.484 55.8824 405.046 50.6938C404.257 50.3829 403.324 50.7655 403.014 51.5785C402.87 51.9371 402.87 52.2241 402.966 52.5588ZM523.523 395.437C523.643 395.892 523.906 396.25 524.312 396.465C524.671 396.633 525.125 396.705 525.532 396.585C525.938 396.441 526.249 396.178 526.464 395.772C526.464 395.772 526.464 395.772 526.488 395.724C526.823 395.031 526.512 394.003 525.771 393.644C525.006 393.237 524.049 393.572 523.643 394.337C523.451 394.648 523.427 395.055 523.523 395.437ZM526.918 388.886C527.014 389.292 527.301 389.699 527.707 389.914C528.52 390.32 529.453 390.033 529.836 389.22C530.314 388.264 530.888 387.236 531.509 386.064C533.087 383.075 535.048 379.369 537.128 375.018L537.152 374.946C537.535 374.061 537.869 373.2 538.252 372.268C543.895 358.591 551.57 339.869 555.229 316.102C555.42 314.882 555.611 313.591 555.802 312.324C555.946 311.511 555.324 310.65 554.487 310.531C553.627 310.411 552.814 310.961 552.694 311.822C552.503 313.089 552.312 314.332 552.048 315.576C548.462 339.032 540.858 357.587 535.263 371.12L534.235 373.655C532.155 378.006 530.146 381.76 528.568 384.749C528.018 385.801 527.492 386.829 527.038 387.738C526.99 387.738 526.99 387.738 526.99 387.738C526.847 388.121 526.823 388.527 526.918 388.886ZM477.686 98.9454C477.758 99.2324 477.926 99.4954 478.141 99.7106C478.762 100.284 479.767 100.237 480.341 99.6149C480.914 98.9694 480.867 97.9412 480.269 97.3673C479.647 96.7935 478.595 96.8413 478.021 97.463C477.663 97.8455 477.543 98.3955 477.686 98.9454ZM500.521 122.88C500.593 123.119 500.688 123.31 500.808 123.502C501.119 123.812 501.478 124.028 501.908 124.076C502.314 124.099 502.721 124.004 503.032 123.693C503.677 123.167 503.797 122.139 503.223 121.445C503.223 121.445 503.223 121.445 503.223 121.398C502.984 121.111 502.577 120.919 502.171 120.895C501.764 120.871 501.358 120.967 501.047 121.23C500.545 121.661 500.378 122.306 500.521 122.88ZM523.643 156.14C523.667 156.259 523.762 156.403 523.786 156.522C536.817 179.213 546.143 203.913 551.116 229.928C551.236 230.502 551.355 231.123 551.451 231.721C551.594 232.606 552.455 233.18 553.316 232.988C554.153 232.845 554.75 231.984 554.583 231.171C554.487 230.836 554.463 230.55 554.392 230.263C554.344 229.928 554.272 229.641 554.248 229.354C549.227 203.22 539.758 177.946 526.56 154.944C526.105 154.203 525.149 153.916 524.408 154.37C523.738 154.705 523.451 155.446 523.643 156.14ZM555.539 272.106C555.731 272.847 556.352 273.35 557.094 273.326C557.954 273.326 558.696 272.561 558.624 271.7C558.648 270.815 557.907 270.146 557.046 270.146C556.161 270.169 555.492 270.863 555.492 271.748C555.468 271.843 555.492 271.987 555.539 272.106ZM552.742 239.086C552.957 239.899 553.746 240.401 554.535 240.281C555.372 240.138 555.994 239.325 555.85 238.44C555.755 237.579 554.894 236.981 554.009 237.125C553.172 237.268 552.551 238.081 552.694 238.942C552.718 239.014 552.718 239.038 552.742 239.086Z" fill="url(#paint33_linear_312_9647)"/>
<g filter="url(#filter0_b_312_9647)">
<path d="M453.611 261.863L331.002 139.25C323.818 132.065 312.181 132.065 305.006 139.25L182.388 261.863C175.204 269.047 175.204 280.685 182.388 287.86L197.309 302.781L317.367 184.241L411.685 277.545C411.685 277.545 397.916 301.126 372.938 285.32L324.066 234.838C324.066 234.838 317.31 227.644 310.23 235.732L221.002 326.466L248.607 354.072L317.88 284.416L371.919 339.732L359.682 351.969C359.682 351.969 348.53 361.399 335.722 348.401L321.449 334.127C321.449 334.127 316.348 330.044 310.744 336.163L271.483 376.939L305.015 410.473C312.2 417.658 323.837 417.658 331.012 410.473L453.62 287.86C460.795 280.685 460.795 269.047 453.611 261.863Z" fill="url(#paint34_linear_312_9647)"/>
<path d="M453.611 261.863L331.002 139.25C323.818 132.065 312.181 132.065 305.006 139.25L182.388 261.863C175.204 269.047 175.204 280.685 182.388 287.86L197.309 302.781L317.367 184.241L411.685 277.545C411.685 277.545 397.916 301.126 372.938 285.32L324.066 234.838C324.066 234.838 317.31 227.644 310.23 235.732L221.002 326.466L248.607 354.072L317.88 284.416L371.919 339.732L359.682 351.969C359.682 351.969 348.53 361.399 335.722 348.401L321.449 334.127C321.449 334.127 316.348 330.044 310.744 336.163L271.483 376.939L305.015 410.473C312.2 417.658 323.837 417.658 331.012 410.473L453.62 287.86C460.795 280.685 460.795 269.047 453.611 261.863Z" stroke="url(#paint35_linear_312_9647)" stroke-width="0.5" stroke-miterlimit="10" stroke-linejoin="round"/>
</g>
<defs>
<filter id="filter0_b_312_9647" x="126.75" y="83.6116" width="382.5" height="382.5" filterUnits="userSpaceOnUse" color-interpolation-filters="sRGB">
<feFlood flood-opacity="0" result="BackgroundImageFix"/>
<feGaussianBlur in="BackgroundImageFix" stdDeviation="25"/>
<feComposite in2="SourceAlpha" operator="in" result="effect1_backgroundBlur_312_9647"/>
<feBlend mode="normal" in="SourceGraphic" in2="effect1_backgroundBlur_312_9647" result="shape"/>
</filter>
<linearGradient id="paint0_linear_312_9647" x1="559.513" y1="220.121" x2="389" y2="198" gradientUnits="userSpaceOnUse">
<stop stop-color="#FF6045"/>
<stop offset="1" stop-color="#FF6045" stop-opacity="0"/>
</linearGradient>
<linearGradient id="paint1_linear_312_9647" x1="507" y1="104.5" x2="318.049" y2="515.732" gradientUnits="userSpaceOnUse">
<stop stop-color="#FF564D" stop-opacity="0.06"/>
<stop offset="1" stop-color="#FF574E" stop-opacity="0.29"/>
</linearGradient>
<linearGradient id="paint2_linear_312_9647" x1="507" y1="104.5" x2="318.049" y2="515.732" gradientUnits="userSpaceOnUse">
<stop stop-color="#FF564D" stop-opacity="0.06"/>
<stop offset="1" stop-color="#FF574E" stop-opacity="0.29"/>
</linearGradient>
<linearGradient id="paint3_linear_312_9647" x1="507" y1="104.5" x2="318.049" y2="515.732" gradientUnits="userSpaceOnUse">
<stop stop-color="#FF564D" stop-opacity="0.06"/>
<stop offset="1" stop-color="#FF574E" stop-opacity="0.29"/>
</linearGradient>
<linearGradient id="paint4_linear_312_9647" x1="507" y1="104.5" x2="318.049" y2="515.732" gradientUnits="userSpaceOnUse">
<stop stop-color="#FF564D" stop-opacity="0.06"/>
<stop offset="1" stop-color="#FF574E" stop-opacity="0.29"/>
</linearGradient>
<linearGradient id="paint5_linear_312_9647" x1="507" y1="104.5" x2="318.049" y2="515.732" gradientUnits="userSpaceOnUse">
<stop stop-color="#FF564D" stop-opacity="0.06"/>
<stop offset="1" stop-color="#FF574E" stop-opacity="0.29"/>
</linearGradient>
<linearGradient id="paint6_linear_312_9647" x1="507" y1="104.5" x2="318.049" y2="515.732" gradientUnits="userSpaceOnUse">
<stop stop-color="#FF564D" stop-opacity="0.06"/>
<stop offset="1" stop-color="#FF574E" stop-opacity="0.29"/>
</linearGradient>
<linearGradient id="paint7_linear_312_9647" x1="507" y1="104.5" x2="318.049" y2="515.732" gradientUnits="userSpaceOnUse">
<stop stop-color="#FF564D" stop-opacity="0.06"/>
<stop offset="1" stop-color="#FF574E" stop-opacity="0.29"/>
</linearGradient>
<linearGradient id="paint8_linear_312_9647" x1="507" y1="104.5" x2="318.049" y2="515.732" gradientUnits="userSpaceOnUse">
<stop stop-color="#FF564D" stop-opacity="0.06"/>
<stop offset="1" stop-color="#FF574E" stop-opacity="0.29"/>
</linearGradient>
<linearGradient id="paint9_linear_312_9647" x1="507" y1="104.5" x2="318.049" y2="515.732" gradientUnits="userSpaceOnUse">
<stop stop-color="#FF564D" stop-opacity="0.06"/>
<stop offset="1" stop-color="#FF574E" stop-opacity="0.29"/>
</linearGradient>
<linearGradient id="paint10_linear_312_9647" x1="507" y1="104.5" x2="318.049" y2="515.732" gradientUnits="userSpaceOnUse">
<stop stop-color="#FF564D" stop-opacity="0.06"/>
<stop offset="1" stop-color="#FF574E" stop-opacity="0.29"/>
</linearGradient>
<linearGradient id="paint11_linear_312_9647" x1="507" y1="104.5" x2="318.049" y2="515.732" gradientUnits="userSpaceOnUse">
<stop stop-color="#FF564D" stop-opacity="0.06"/>
<stop offset="1" stop-color="#FF574E" stop-opacity="0.29"/>
</linearGradient>
<linearGradient id="paint12_linear_312_9647" x1="507" y1="104.5" x2="318.049" y2="515.732" gradientUnits="userSpaceOnUse">
<stop stop-color="#FF564D" stop-opacity="0.06"/>
<stop offset="1" stop-color="#FF574E" stop-opacity="0.29"/>
</linearGradient>
<linearGradient id="paint13_linear_312_9647" x1="507" y1="104.5" x2="318.049" y2="515.732" gradientUnits="userSpaceOnUse">
<stop stop-color="#FF564D" stop-opacity="0.06"/>
<stop offset="1" stop-color="#FF574E" stop-opacity="0.29"/>
</linearGradient>
<linearGradient id="paint14_linear_312_9647" x1="507" y1="104.5" x2="318.049" y2="515.732" gradientUnits="userSpaceOnUse">
<stop stop-color="#FF564D" stop-opacity="0.06"/>
<stop offset="1" stop-color="#FF574E" stop-opacity="0.29"/>
</linearGradient>
<linearGradient id="paint15_linear_312_9647" x1="507" y1="104.5" x2="318.049" y2="515.732" gradientUnits="userSpaceOnUse">
<stop stop-color="#FF564D" stop-opacity="0.06"/>
<stop offset="1" stop-color="#FF574E" stop-opacity="0.29"/>
</linearGradient>
<linearGradient id="paint16_linear_312_9647" x1="507" y1="104.5" x2="318.049" y2="515.732" gradientUnits="userSpaceOnUse">
<stop stop-color="#FF564D" stop-opacity="0.06"/>
<stop offset="1" stop-color="#FF574E" stop-opacity="0.29"/>
</linearGradient>
<linearGradient id="paint17_linear_312_9647" x1="507" y1="104.5" x2="318.049" y2="515.732" gradientUnits="userSpaceOnUse">
<stop stop-color="#FF564D" stop-opacity="0.06"/>
<stop offset="1" stop-color="#FF574E" stop-opacity="0.29"/>
</linearGradient>
<linearGradient id="paint18_linear_312_9647" x1="507" y1="104.5" x2="318.049" y2="515.732" gradientUnits="userSpaceOnUse">
<stop stop-color="#FF564D" stop-opacity="0.06"/>
<stop offset="1" stop-color="#FF574E" stop-opacity="0.29"/>
</linearGradient>
<linearGradient id="paint19_linear_312_9647" x1="507" y1="104.5" x2="318.049" y2="515.732" gradientUnits="userSpaceOnUse">
<stop stop-color="#FF564D" stop-opacity="0.06"/>
<stop offset="1" stop-color="#FF574E" stop-opacity="0.29"/>
</linearGradient>
<linearGradient id="paint20_linear_312_9647" x1="507" y1="104.5" x2="318.049" y2="515.732" gradientUnits="userSpaceOnUse">
<stop stop-color="#FF564D" stop-opacity="0.06"/>
<stop offset="1" stop-color="#FF574E" stop-opacity="0.29"/>
</linearGradient>
<linearGradient id="paint21_linear_312_9647" x1="507" y1="104.5" x2="318.049" y2="515.732" gradientUnits="userSpaceOnUse">
<stop stop-color="#FF564D" stop-opacity="0.06"/>
<stop offset="1" stop-color="#FF574E" stop-opacity="0.29"/>
</linearGradient>
<linearGradient id="paint22_linear_312_9647" x1="507" y1="104.5" x2="318.049" y2="515.732" gradientUnits="userSpaceOnUse">
<stop stop-color="#FF564D" stop-opacity="0.06"/>
<stop offset="1" stop-color="#FF574E" stop-opacity="0.29"/>
</linearGradient>
<linearGradient id="paint23_linear_312_9647" x1="507" y1="104.5" x2="318.049" y2="515.732" gradientUnits="userSpaceOnUse">
<stop stop-color="#FF564D" stop-opacity="0.06"/>
<stop offset="1" stop-color="#FF574E" stop-opacity="0.29"/>
</linearGradient>
<linearGradient id="paint24_linear_312_9647" x1="507" y1="104.5" x2="318.049" y2="515.732" gradientUnits="userSpaceOnUse">
<stop stop-color="#FF564D" stop-opacity="0.06"/>
<stop offset="1" stop-color="#FF574E" stop-opacity="0.29"/>
</linearGradient>
<linearGradient id="paint25_linear_312_9647" x1="507" y1="104.5" x2="318.049" y2="515.732" gradientUnits="userSpaceOnUse">
<stop stop-color="#FF564D" stop-opacity="0.06"/>
<stop offset="1" stop-color="#FF574E" stop-opacity="0.29"/>
</linearGradient>
<linearGradient id="paint26_linear_312_9647" x1="507" y1="104.5" x2="318.049" y2="515.732" gradientUnits="userSpaceOnUse">
<stop stop-color="#FF564D" stop-opacity="0.06"/>
<stop offset="1" stop-color="#FF574E" stop-opacity="0.29"/>
</linearGradient>
<linearGradient id="paint27_linear_312_9647" x1="507" y1="104.5" x2="318.049" y2="515.732" gradientUnits="userSpaceOnUse">
<stop stop-color="#FF564D" stop-opacity="0.06"/>
<stop offset="1" stop-color="#FF574E" stop-opacity="0.29"/>
</linearGradient>
<linearGradient id="paint28_linear_312_9647" x1="507" y1="104.5" x2="318.049" y2="515.732" gradientUnits="userSpaceOnUse">
<stop stop-color="#FF564D" stop-opacity="0.06"/>
<stop offset="1" stop-color="#FF574E" stop-opacity="0.29"/>
</linearGradient>
<linearGradient id="paint29_linear_312_9647" x1="507" y1="104.5" x2="318.049" y2="515.732" gradientUnits="userSpaceOnUse">
<stop stop-color="#FF564D" stop-opacity="0.06"/>
<stop offset="1" stop-color="#FF574E" stop-opacity="0.29"/>
</linearGradient>
<linearGradient id="paint30_linear_312_9647" x1="507" y1="104.5" x2="318.049" y2="515.732" gradientUnits="userSpaceOnUse">
<stop stop-color="#FF564D" stop-opacity="0.06"/>
<stop offset="1" stop-color="#FF574E" stop-opacity="0.29"/>
</linearGradient>
<linearGradient id="paint31_linear_312_9647" x1="507" y1="104.5" x2="318.049" y2="515.732" gradientUnits="userSpaceOnUse">
<stop stop-color="#FF564D" stop-opacity="0.06"/>
<stop offset="1" stop-color="#FF574E" stop-opacity="0.29"/>
</linearGradient>
<linearGradient id="paint32_linear_312_9647" x1="507" y1="104.5" x2="318.049" y2="515.732" gradientUnits="userSpaceOnUse">
<stop stop-color="#FF564D" stop-opacity="0.06"/>
<stop offset="1" stop-color="#FF574E" stop-opacity="0.29"/>
</linearGradient>
<linearGradient id="paint33_linear_312_9647" x1="507" y1="104.5" x2="318.049" y2="515.732" gradientUnits="userSpaceOnUse">
<stop stop-color="#FF564D" stop-opacity="0.06"/>
<stop offset="1" stop-color="#FF574E" stop-opacity="0.29"/>
</linearGradient>
<linearGradient id="paint34_linear_312_9647" x1="305" y1="122.5" x2="435" y2="488" gradientUnits="userSpaceOnUse">
<stop stop-color="#FF362C" stop-opacity="0.06"/>
<stop offset="1" stop-color="#FF3B31" stop-opacity="0.31"/>
</linearGradient>
<linearGradient id="paint35_linear_312_9647" x1="318" y1="245" x2="318" y2="415.862" gradientUnits="userSpaceOnUse">
<stop stop-color="#FF564D" stop-opacity="0"/>
<stop offset="1" stop-color="#FF564D"/>
</linearGradient>
</defs>
</svg>
